G75*
%MOIN*%
%OFA0B0*%
%FSLAX24Y24*%
%IPPOS*%
%LPD*%
%AMOC8*
5,1,8,0,0,1.08239X$1,22.5*
%
%ADD10C,0.2180*%
%ADD11R,0.0680X0.0680*%
%ADD12OC8,0.0680*%
%ADD13R,0.0474X0.0513*%
%ADD14C,0.0740*%
%ADD15C,0.0640*%
%ADD16C,0.0560*%
%ADD17OC8,0.0417*%
%ADD18C,0.0940*%
%ADD19C,0.0552*%
%ADD20R,0.1025X0.1182*%
%ADD21C,0.0880*%
%ADD22R,0.0513X0.0474*%
%ADD23C,0.0456*%
D10*
X002822Y003572D03*
X002822Y020178D03*
X034428Y020178D03*
X034428Y003572D03*
D11*
X032625Y002875D03*
X005625Y002875D03*
D12*
X005625Y001875D03*
X013625Y001875D03*
X014625Y001875D03*
X015625Y001875D03*
X016625Y001875D03*
X017625Y001875D03*
X018625Y001875D03*
X019625Y001875D03*
X020625Y001875D03*
X021625Y001875D03*
X022625Y001875D03*
X023625Y001875D03*
X024625Y001875D03*
X025625Y001875D03*
X026625Y001875D03*
X027625Y001875D03*
X028625Y001875D03*
X029625Y001875D03*
X030625Y001875D03*
X031625Y001875D03*
X032625Y001875D03*
X031625Y002875D03*
X030625Y002875D03*
X029625Y002875D03*
X028625Y002875D03*
X027625Y002875D03*
X026625Y002875D03*
X025625Y002875D03*
X024625Y002875D03*
X023625Y002875D03*
X022625Y002875D03*
X021625Y002875D03*
X020625Y002875D03*
X019625Y002875D03*
X018625Y002875D03*
X017625Y002875D03*
X016625Y002875D03*
X015625Y002875D03*
X014625Y002875D03*
X013625Y002875D03*
D13*
X022125Y013040D03*
X022125Y013710D03*
D14*
X029408Y014052D03*
X014842Y014052D03*
D15*
X013168Y021139D03*
X031082Y021139D03*
D16*
X009625Y014115D02*
X009625Y013635D01*
X008625Y013635D02*
X008625Y014115D01*
X007625Y014115D02*
X007625Y013635D01*
X006625Y013635D02*
X006625Y014115D01*
X005625Y014115D02*
X005625Y013635D01*
X004625Y013635D02*
X004625Y014115D01*
X003625Y014115D02*
X003625Y013635D01*
X002625Y013635D02*
X002625Y014115D01*
X002625Y011115D02*
X002625Y010635D01*
X003625Y010635D02*
X003625Y011115D01*
X004625Y011115D02*
X004625Y010635D01*
X005625Y010635D02*
X005625Y011115D01*
X006625Y011115D02*
X006625Y010635D01*
X007625Y010635D02*
X007625Y011115D01*
X008625Y011115D02*
X008625Y010635D01*
X009625Y010635D02*
X009625Y011115D01*
D17*
X003625Y005375D03*
X003125Y005000D03*
X002625Y005375D03*
X002125Y005000D03*
X001625Y005375D03*
X004125Y005000D03*
X029125Y008875D03*
X030125Y008875D03*
D18*
X010094Y017969D03*
X009109Y017969D03*
X007141Y017969D03*
X006156Y017969D03*
X008125Y019938D03*
D19*
X006156Y019938D03*
X006156Y020922D03*
X010094Y020922D03*
X010094Y019938D03*
X008125Y017969D03*
D20*
X006881Y004902D03*
X006881Y002500D03*
X011369Y002500D03*
X011369Y004902D03*
D21*
X009125Y004300D03*
X009125Y002500D03*
D22*
X018000Y013040D03*
X018000Y013710D03*
X019000Y013710D03*
X019000Y013040D03*
X023000Y013040D03*
X023000Y013710D03*
D23*
X030438Y009688D03*
X012875Y003375D03*
X012500Y003000D03*
X012125Y002625D03*
M02*
