G75*
%MOIN*%
%OFA0B0*%
%FSLAX24Y24*%
%IPPOS*%
%LPD*%
%AMOC8*
5,1,8,0,0,1.08239X$1,22.5*
%
%ADD10C,0.2180*%
%ADD11R,0.0680X0.0680*%
%ADD12OC8,0.0680*%
%ADD13R,0.0513X0.0474*%
%ADD14C,0.0740*%
%ADD15C,0.0640*%
%ADD16C,0.0560*%
%ADD17OC8,0.0417*%
%ADD18C,0.0940*%
%ADD19C,0.0552*%
%ADD20R,0.0474X0.0513*%
%ADD21C,0.0456*%
D10*
X002822Y003572D03*
X002822Y020178D03*
X034428Y020178D03*
X034428Y003572D03*
D11*
X032625Y002875D03*
X005125Y018375D03*
D12*
X005125Y019375D03*
X005125Y020375D03*
X005125Y021375D03*
X013625Y002875D03*
X014625Y002875D03*
X015625Y002875D03*
X016625Y002875D03*
X017625Y002875D03*
X018625Y002875D03*
X019625Y002875D03*
X020625Y002875D03*
X021625Y002875D03*
X022625Y002875D03*
X023625Y002875D03*
X024625Y002875D03*
X025625Y002875D03*
X026625Y002875D03*
X027625Y002875D03*
X028625Y002875D03*
X029625Y002875D03*
X030625Y002875D03*
X031625Y002875D03*
X031625Y001875D03*
X030625Y001875D03*
X029625Y001875D03*
X028625Y001875D03*
X027625Y001875D03*
X026625Y001875D03*
X025625Y001875D03*
X024625Y001875D03*
X023625Y001875D03*
X022625Y001875D03*
X021625Y001875D03*
X020625Y001875D03*
X019625Y001875D03*
X018625Y001875D03*
X017625Y001875D03*
X016625Y001875D03*
X015625Y001875D03*
X014625Y001875D03*
X013625Y001875D03*
X032625Y001875D03*
D13*
X021585Y013125D03*
X020915Y013125D03*
X019000Y013040D03*
X019000Y013710D03*
X018000Y013710D03*
X018000Y013040D03*
D14*
X014842Y014052D03*
X029408Y014052D03*
D15*
X031082Y021139D03*
X013168Y021139D03*
D16*
X009625Y014115D02*
X009625Y013635D01*
X008625Y013635D02*
X008625Y014115D01*
X007625Y014115D02*
X007625Y013635D01*
X006625Y013635D02*
X006625Y014115D01*
X005625Y014115D02*
X005625Y013635D01*
X004625Y013635D02*
X004625Y014115D01*
X003625Y014115D02*
X003625Y013635D01*
X002625Y013635D02*
X002625Y014115D01*
X002625Y011115D02*
X002625Y010635D01*
X003625Y010635D02*
X003625Y011115D01*
X004625Y011115D02*
X004625Y010635D01*
X005625Y010635D02*
X005625Y011115D01*
X006625Y011115D02*
X006625Y010635D01*
X007625Y010635D02*
X007625Y011115D01*
X008625Y011115D02*
X008625Y010635D01*
X009625Y010635D02*
X009625Y011115D01*
X009365Y009375D02*
X008885Y009375D01*
X009885Y009375D02*
X010365Y009375D01*
X010365Y008375D02*
X009885Y008375D01*
X009365Y008375D02*
X008885Y008375D01*
X008885Y007375D02*
X009365Y007375D01*
X009885Y007375D02*
X010365Y007375D01*
X010365Y006375D02*
X009885Y006375D01*
X009365Y006375D02*
X008885Y006375D01*
X008885Y005375D02*
X009365Y005375D01*
X009885Y005375D02*
X010365Y005375D01*
X010365Y004375D02*
X009885Y004375D01*
X009365Y004375D02*
X008885Y004375D01*
X008885Y003375D02*
X009365Y003375D01*
X009885Y003375D02*
X010365Y003375D01*
X010365Y002375D02*
X009885Y002375D01*
X009365Y002375D02*
X008885Y002375D01*
X009885Y001375D02*
X010365Y001375D01*
X006365Y002375D02*
X005885Y002375D01*
X005885Y003375D02*
X006365Y003375D01*
X006365Y004375D02*
X005885Y004375D01*
X005885Y005375D02*
X006365Y005375D01*
X006365Y006375D02*
X005885Y006375D01*
X005885Y007375D02*
X006365Y007375D01*
X006365Y008375D02*
X005885Y008375D01*
X005885Y009375D02*
X006365Y009375D01*
D17*
X004125Y005375D03*
X003625Y005000D03*
X003125Y005375D03*
X029125Y008875D03*
X030125Y008875D03*
X033125Y014000D03*
X033625Y014375D03*
X034125Y014000D03*
X034625Y014375D03*
X035125Y014000D03*
X035625Y014375D03*
D18*
X010094Y017969D03*
X009109Y017969D03*
X007141Y017969D03*
X006156Y017969D03*
X008125Y019938D03*
D19*
X006156Y019938D03*
X006156Y020922D03*
X010094Y020922D03*
X010094Y019938D03*
X008125Y017969D03*
D20*
X020915Y014313D03*
X021585Y014313D03*
D21*
X030813Y009688D03*
M02*
