G75*
%MOIN*%
%OFA0B0*%
%FSLAX24Y24*%
%IPPOS*%
%LPD*%
%AMOC8*
5,1,8,0,0,1.08239X$1,22.5*
%
%ADD10C,0.0040*%
%ADD11C,0.0030*%
%ADD12C,0.0050*%
%ADD13R,0.0250X0.0250*%
%ADD14C,0.0100*%
%ADD15C,0.0020*%
%ADD16C,0.0060*%
%ADD17C,0.0080*%
%ADD18R,0.0059X0.0118*%
%ADD19R,0.0118X0.0118*%
D10*
X005045Y005720D02*
X005352Y005720D01*
X005198Y005720D02*
X005198Y006180D01*
X005045Y006027D01*
X005505Y006104D02*
X005505Y005797D01*
X005812Y006104D01*
X005812Y005797D01*
X005736Y005720D01*
X005582Y005720D01*
X005505Y005797D01*
X005505Y006104D02*
X005582Y006180D01*
X005736Y006180D01*
X005812Y006104D01*
X005966Y006104D02*
X005966Y005797D01*
X006273Y006104D01*
X006273Y005797D01*
X006196Y005720D01*
X006043Y005720D01*
X005966Y005797D01*
X005966Y006104D02*
X006043Y006180D01*
X006196Y006180D01*
X006273Y006104D01*
X006426Y006027D02*
X006656Y006027D01*
X006733Y005950D01*
X006733Y005720D01*
X006426Y005720D02*
X006426Y006027D01*
X005328Y008545D02*
X005405Y008622D01*
X005405Y008775D01*
X005328Y008852D01*
X005175Y008852D01*
X005098Y008775D01*
X005098Y008698D01*
X005175Y008545D01*
X004945Y008545D01*
X004945Y008852D01*
X005021Y009005D02*
X004945Y009082D01*
X004945Y009236D01*
X005021Y009312D01*
X005328Y009005D01*
X005405Y009082D01*
X005405Y009236D01*
X005328Y009312D01*
X005021Y009312D01*
X005021Y009466D02*
X004945Y009543D01*
X004945Y009696D01*
X005021Y009773D01*
X005328Y009466D01*
X005405Y009543D01*
X005405Y009696D01*
X005328Y009773D01*
X005021Y009773D01*
X004945Y009926D02*
X004945Y010156D01*
X005021Y010233D01*
X005175Y010233D01*
X005252Y010156D01*
X005252Y009926D01*
X005405Y009926D02*
X004945Y009926D01*
X005252Y010080D02*
X005405Y010233D01*
X005328Y009466D02*
X005021Y009466D01*
X005021Y009005D02*
X005328Y009005D01*
X001933Y010676D02*
X001473Y010676D01*
X001473Y010906D01*
X001550Y010983D01*
X001703Y010983D01*
X001780Y010906D01*
X001780Y010676D01*
X001703Y010523D02*
X001396Y010523D01*
X001703Y010216D01*
X001780Y010293D01*
X001780Y010446D01*
X001703Y010523D01*
X001396Y010523D02*
X001320Y010446D01*
X001320Y010293D01*
X001396Y010216D01*
X001703Y010216D01*
X001703Y010062D02*
X001627Y010062D01*
X001550Y009986D01*
X001550Y009755D01*
X001703Y009755D01*
X001780Y009832D01*
X001780Y009986D01*
X001703Y010062D01*
X001396Y009909D02*
X001550Y009755D01*
X001550Y009602D02*
X001703Y009602D01*
X001780Y009525D01*
X001780Y009372D01*
X001703Y009295D01*
X001550Y009295D02*
X001473Y009448D01*
X001473Y009525D01*
X001550Y009602D01*
X001320Y009602D02*
X001320Y009295D01*
X001550Y009295D01*
X001396Y009909D02*
X001320Y010062D01*
X012395Y003185D02*
X012702Y003185D01*
X012855Y003032D01*
X012702Y002878D01*
X012395Y002878D01*
X012395Y002725D02*
X012395Y002418D01*
X012625Y002418D01*
X012548Y002571D01*
X012548Y002648D01*
X012625Y002725D01*
X012778Y002725D01*
X012855Y002648D01*
X012855Y002495D01*
X012778Y002418D01*
X012625Y002264D02*
X012625Y001958D01*
X012778Y002111D02*
X012471Y002111D01*
X014395Y003534D02*
X014471Y003458D01*
X014778Y003458D01*
X014855Y003534D01*
X014855Y003688D01*
X014778Y003764D01*
X014625Y003764D01*
X014625Y003611D01*
X014471Y003764D02*
X014395Y003688D01*
X014395Y003534D01*
X014395Y003918D02*
X014855Y004225D01*
X014395Y004225D01*
X014395Y004378D02*
X014395Y004608D01*
X014471Y004685D01*
X014778Y004685D01*
X014855Y004608D01*
X014855Y004378D01*
X014395Y004378D01*
X014395Y003918D02*
X014855Y003918D01*
X028875Y009375D02*
X028935Y009315D01*
X029175Y009315D01*
X028935Y009555D01*
X029175Y009555D01*
X029235Y009495D01*
X029235Y009375D01*
X029175Y009315D01*
X028875Y009375D02*
X028875Y009495D01*
X028935Y009555D01*
X028875Y009683D02*
X029235Y009924D01*
X029235Y010052D02*
X028995Y010052D01*
X028875Y010172D01*
X028995Y010292D01*
X029235Y010292D01*
X029175Y010420D02*
X028935Y010420D01*
X028875Y010480D01*
X028875Y010600D01*
X028935Y010660D01*
X029175Y010420D01*
X029235Y010480D01*
X029235Y010600D01*
X029175Y010660D01*
X028935Y010660D01*
X029055Y010292D02*
X029055Y010052D01*
X028875Y009924D02*
X029235Y009683D01*
X029875Y009683D02*
X030235Y009924D01*
X030235Y010052D02*
X029995Y010052D01*
X029875Y010172D01*
X029995Y010292D01*
X030235Y010292D01*
X030175Y010420D02*
X030115Y010420D01*
X030055Y010480D01*
X030055Y010600D01*
X030115Y010660D01*
X030175Y010660D01*
X030235Y010600D01*
X030235Y010480D01*
X030175Y010420D01*
X030055Y010480D02*
X029995Y010420D01*
X029935Y010420D01*
X029875Y010480D01*
X029875Y010600D01*
X029935Y010660D01*
X029995Y010660D01*
X030055Y010600D01*
X030055Y010292D02*
X030055Y010052D01*
X029875Y009924D02*
X030235Y009683D01*
X030175Y009555D02*
X029935Y009555D01*
X030175Y009315D01*
X030235Y009375D01*
X030235Y009495D01*
X030175Y009555D01*
X030175Y009315D02*
X029935Y009315D01*
X029875Y009375D01*
X029875Y009495D01*
X029935Y009555D01*
X032636Y005180D02*
X032636Y004720D01*
X032483Y004720D02*
X032789Y004720D01*
X032943Y004797D02*
X033250Y005104D01*
X033250Y004797D01*
X033173Y004720D01*
X033020Y004720D01*
X032943Y004797D01*
X032943Y005104D01*
X033020Y005180D01*
X033173Y005180D01*
X033250Y005104D01*
X033403Y005104D02*
X033480Y005180D01*
X033633Y005180D01*
X033710Y005104D01*
X033403Y004797D01*
X033480Y004720D01*
X033633Y004720D01*
X033710Y004797D01*
X033710Y005104D01*
X033864Y005027D02*
X034094Y005027D01*
X034171Y004950D01*
X034171Y004720D01*
X033864Y004720D02*
X033864Y005027D01*
X033403Y005104D02*
X033403Y004797D01*
X032636Y005180D02*
X032483Y005027D01*
X032432Y017077D02*
X032432Y017307D01*
X032509Y017384D01*
X032662Y017384D01*
X032739Y017307D01*
X032739Y017077D01*
X032892Y017077D02*
X032432Y017077D01*
X032739Y017231D02*
X032892Y017384D01*
X032892Y017538D02*
X032432Y017538D01*
X032432Y017845D01*
X032509Y017998D02*
X032585Y017998D01*
X032662Y018075D01*
X032662Y018228D01*
X032739Y018305D01*
X032816Y018305D01*
X032892Y018228D01*
X032892Y018075D01*
X032816Y017998D01*
X032892Y017845D02*
X032892Y017538D01*
X032662Y017538D02*
X032662Y017691D01*
X032509Y017998D02*
X032432Y018075D01*
X032432Y018228D01*
X032509Y018305D01*
X032432Y018458D02*
X032892Y018458D01*
X032892Y018765D01*
X032662Y018612D02*
X032662Y018458D01*
X032432Y018458D02*
X032432Y018765D01*
X032432Y018919D02*
X032432Y019226D01*
X032432Y019072D02*
X032892Y019072D01*
X032305Y020151D02*
X032305Y020458D01*
X032305Y020611D02*
X031845Y020611D01*
X031998Y020842D02*
X032152Y020611D01*
X032305Y020842D01*
X032305Y020304D02*
X031845Y020304D01*
X031998Y020151D01*
X033020Y021014D02*
X033020Y021244D01*
X033096Y021321D01*
X033250Y021321D01*
X033327Y021244D01*
X033327Y021014D01*
X033480Y021014D02*
X033020Y021014D01*
X033020Y021474D02*
X033480Y021474D01*
X033327Y021628D01*
X033480Y021781D01*
X033020Y021781D01*
X033020Y021935D02*
X033020Y022165D01*
X033096Y022242D01*
X033250Y022242D01*
X033327Y022165D01*
X033327Y021935D01*
X033480Y021935D02*
X033020Y021935D01*
X033327Y022088D02*
X033480Y022242D01*
X035706Y018311D02*
X036012Y018311D01*
X036012Y018081D01*
X035936Y018004D01*
X035706Y018004D01*
X035706Y017850D02*
X035629Y017850D01*
X035552Y017774D01*
X035552Y017620D01*
X035629Y017543D01*
X035629Y017390D02*
X035552Y017313D01*
X035552Y017160D01*
X035629Y017083D01*
X035629Y017390D02*
X035706Y017390D01*
X036012Y017083D01*
X036012Y017390D01*
X036012Y017543D02*
X035706Y017850D01*
X036012Y017850D02*
X036012Y017543D01*
X020680Y018316D02*
X020680Y018622D01*
X020680Y018469D02*
X020220Y018469D01*
X020373Y018316D01*
X020296Y018776D02*
X020220Y018853D01*
X020220Y019006D01*
X020296Y019083D01*
X020603Y018776D01*
X020680Y018853D01*
X020680Y019006D01*
X020603Y019083D01*
X020296Y019083D01*
X020220Y019236D02*
X020680Y019236D01*
X020527Y019236D02*
X020373Y019467D01*
X020527Y019236D02*
X020680Y019467D01*
X020530Y020045D02*
X020530Y020352D01*
X020530Y020505D02*
X020070Y020505D01*
X020223Y020736D02*
X020377Y020505D01*
X020530Y020736D01*
X020530Y020198D02*
X020070Y020198D01*
X020223Y020045D01*
X020296Y018776D02*
X020603Y018776D01*
X018023Y018720D02*
X018023Y018950D01*
X017946Y019027D01*
X017716Y019027D01*
X017716Y018720D01*
X017562Y018797D02*
X017486Y018720D01*
X017332Y018720D01*
X017255Y018797D01*
X017562Y019104D01*
X017562Y018797D01*
X017255Y018797D02*
X017255Y019104D01*
X017332Y019180D01*
X017486Y019180D01*
X017562Y019104D01*
X017102Y018720D02*
X016795Y018720D01*
X016948Y018720D02*
X016948Y019180D01*
X016795Y019027D01*
X016795Y019720D02*
X017102Y019720D01*
X017255Y019720D02*
X017562Y020027D01*
X017562Y020104D01*
X017486Y020180D01*
X017332Y020180D01*
X017255Y020104D01*
X016948Y020180D02*
X016948Y019720D01*
X017255Y019720D02*
X017562Y019720D01*
X017716Y019720D02*
X017716Y020180D01*
X017946Y020027D02*
X017716Y019873D01*
X017946Y019720D01*
X016948Y020180D02*
X016795Y020027D01*
X016872Y020720D02*
X017025Y020720D01*
X017102Y020797D01*
X017102Y020873D01*
X017025Y020950D01*
X016795Y020950D01*
X016795Y020797D01*
X016872Y020720D01*
X016795Y020950D02*
X016948Y021104D01*
X017102Y021180D01*
X017255Y021180D02*
X017255Y020720D01*
X017255Y020873D02*
X017486Y021027D01*
X017639Y021027D02*
X017639Y021104D01*
X017716Y021180D01*
X017869Y021180D01*
X017946Y021104D01*
X017946Y021027D01*
X017869Y020950D01*
X017716Y020950D01*
X017639Y021027D01*
X017716Y020950D02*
X017639Y020873D01*
X017639Y020797D01*
X017716Y020720D01*
X017869Y020720D01*
X017946Y020797D01*
X017946Y020873D01*
X017869Y020950D01*
X017486Y020720D02*
X017255Y020873D01*
X016523Y020950D02*
X016523Y020720D01*
X016523Y020950D02*
X016446Y021027D01*
X016216Y021027D01*
X016216Y020720D01*
X016062Y020797D02*
X015986Y020720D01*
X015832Y020720D01*
X015755Y020797D01*
X016062Y021104D01*
X016062Y020797D01*
X015755Y020797D02*
X015755Y021104D01*
X015832Y021180D01*
X015986Y021180D01*
X016062Y021104D01*
X015602Y020720D02*
X015295Y020720D01*
X015448Y020720D02*
X015448Y021180D01*
X015295Y021027D01*
X014718Y020923D02*
X014564Y020693D01*
X014411Y020923D01*
X014257Y020693D02*
X014718Y020693D01*
X014718Y020539D02*
X014718Y020233D01*
X014718Y020386D02*
X014257Y020386D01*
X014411Y020233D01*
X014411Y019633D02*
X014564Y019403D01*
X014718Y019633D01*
X014718Y019403D02*
X014257Y019403D01*
X014334Y019250D02*
X014641Y018943D01*
X014718Y019020D01*
X014718Y019173D01*
X014641Y019250D01*
X014334Y019250D01*
X014257Y019173D01*
X014257Y019020D01*
X014334Y018943D01*
X014641Y018943D01*
X014718Y018789D02*
X014718Y018483D01*
X014718Y018636D02*
X014257Y018636D01*
X014411Y018483D01*
X015295Y018720D02*
X015602Y018720D01*
X015755Y018720D02*
X015755Y019180D01*
X015986Y019027D02*
X015755Y018873D01*
X015986Y018720D01*
X015448Y018720D02*
X015448Y019180D01*
X015295Y019027D01*
X015295Y019720D02*
X015602Y019720D01*
X015755Y019720D02*
X015755Y020180D01*
X015986Y020027D02*
X015755Y019873D01*
X015986Y019720D01*
X015448Y019720D02*
X015448Y020180D01*
X015295Y020027D01*
X011155Y020005D02*
X010695Y020005D01*
X010848Y020236D02*
X011002Y020005D01*
X011155Y020236D01*
X011155Y019852D02*
X011155Y019545D01*
X011155Y019698D02*
X010695Y019698D01*
X010848Y019545D01*
X010861Y021145D02*
X010707Y021298D01*
X010861Y021452D01*
X011168Y021452D01*
X011091Y021605D02*
X010784Y021605D01*
X010707Y021682D01*
X010707Y021836D01*
X010784Y021912D01*
X010707Y022066D02*
X010707Y022373D01*
X010707Y022219D02*
X011168Y022219D01*
X011091Y021912D02*
X011168Y021836D01*
X011168Y021682D01*
X011091Y021605D01*
X010937Y021452D02*
X010937Y021145D01*
X010861Y021145D02*
X011168Y021145D01*
X004796Y017700D02*
X004796Y017470D01*
X004796Y017700D02*
X004719Y017777D01*
X004489Y017777D01*
X004489Y017470D01*
X004335Y017547D02*
X004258Y017470D01*
X004105Y017470D01*
X004028Y017547D01*
X004335Y017854D01*
X004335Y017547D01*
X004335Y017854D02*
X004258Y017930D01*
X004105Y017930D01*
X004028Y017854D01*
X004028Y017547D01*
X003875Y017547D02*
X003798Y017470D01*
X003645Y017470D01*
X003568Y017547D01*
X003875Y017854D01*
X003875Y017547D01*
X003875Y017854D02*
X003798Y017930D01*
X003645Y017930D01*
X003568Y017854D01*
X003568Y017547D01*
X003414Y017470D02*
X003108Y017470D01*
X003261Y017470D02*
X003261Y017930D01*
X003108Y017777D01*
D11*
X003778Y018240D02*
X003902Y018363D01*
X004025Y018240D01*
X004025Y018610D01*
X004147Y018610D02*
X004147Y018240D01*
X004147Y018363D02*
X004332Y018363D01*
X004394Y018425D01*
X004394Y018549D01*
X004332Y018610D01*
X004147Y018610D01*
X004270Y018363D02*
X004394Y018240D01*
X003778Y018240D02*
X003778Y018610D01*
X003778Y018990D02*
X003902Y019113D01*
X004025Y018990D01*
X004025Y019360D01*
X004147Y019360D02*
X004147Y018990D01*
X004394Y018990D01*
X004270Y019175D02*
X004147Y019175D01*
X004147Y019360D02*
X004394Y019360D01*
X003778Y019360D02*
X003778Y018990D01*
X004527Y020178D02*
X004353Y020353D01*
X004615Y020614D01*
X004529Y020700D02*
X004354Y020875D01*
X004092Y020613D01*
X004267Y020438D01*
X004311Y020657D02*
X004223Y020744D01*
X004094Y020786D02*
X004050Y020743D01*
X003963Y020743D01*
X003876Y020830D01*
X003876Y020917D01*
X003746Y020959D02*
X004008Y021221D01*
X003833Y021221D01*
X003833Y021396D01*
X003572Y021134D01*
X003529Y021263D02*
X003704Y021438D01*
X003704Y021525D01*
X003617Y021613D01*
X003529Y021613D01*
X003355Y021438D01*
X003355Y021351D01*
X003442Y021263D01*
X003529Y021263D01*
X003225Y021480D02*
X003225Y021655D01*
X003269Y021611D02*
X003138Y021742D01*
X003051Y021655D02*
X003313Y021917D01*
X003444Y021786D01*
X003444Y021698D01*
X003356Y021611D01*
X003269Y021611D01*
X004007Y021048D02*
X004007Y020961D01*
X004094Y020873D01*
X004094Y020786D01*
X004225Y020917D02*
X004225Y021004D01*
X004138Y021092D01*
X004050Y021092D01*
X004007Y021048D01*
X004952Y022015D02*
X005075Y022015D01*
X005137Y022077D01*
X005258Y022077D02*
X005320Y022015D01*
X005443Y022015D01*
X005505Y022077D01*
X005505Y022138D01*
X005443Y022200D01*
X005320Y022200D01*
X005258Y022262D01*
X005258Y022324D01*
X005320Y022385D01*
X005443Y022385D01*
X005505Y022324D01*
X005137Y022324D02*
X005075Y022385D01*
X004952Y022385D01*
X004890Y022324D01*
X004890Y022077D01*
X004952Y022015D01*
X004110Y016728D02*
X003925Y016543D01*
X003987Y016482D02*
X003740Y016728D01*
X003740Y016482D02*
X004110Y016482D01*
X004110Y016360D02*
X004110Y016113D01*
X003740Y016113D01*
X003801Y015992D02*
X003740Y015930D01*
X003740Y015807D01*
X003801Y015745D01*
X004048Y015745D01*
X004110Y015807D01*
X004110Y015930D01*
X004048Y015992D01*
X004048Y015624D02*
X004110Y015562D01*
X004110Y015438D01*
X004048Y015377D01*
X003925Y015438D02*
X003925Y015562D01*
X003987Y015624D01*
X004048Y015624D01*
X003925Y015438D02*
X003863Y015377D01*
X003801Y015377D01*
X003740Y015438D01*
X003740Y015562D01*
X003801Y015624D01*
X003801Y015255D02*
X003740Y015255D01*
X003801Y015255D02*
X003925Y015132D01*
X004110Y015132D01*
X003925Y015132D02*
X003801Y015008D01*
X003740Y015008D01*
X003801Y014887D02*
X003740Y014825D01*
X003740Y014702D01*
X003801Y014640D01*
X003863Y014640D01*
X003925Y014702D01*
X003925Y014825D01*
X003987Y014887D01*
X004048Y014887D01*
X004110Y014825D01*
X004110Y014702D01*
X004048Y014640D01*
X001610Y014952D02*
X001610Y015075D01*
X001548Y015137D01*
X001301Y015137D01*
X001240Y015075D01*
X001240Y014952D01*
X001301Y014890D01*
X001548Y014890D01*
X001610Y014952D01*
X001548Y015258D02*
X001610Y015320D01*
X001610Y015443D01*
X001548Y015505D01*
X001487Y015505D01*
X001425Y015443D01*
X001425Y015320D01*
X001363Y015258D01*
X001301Y015258D01*
X001240Y015320D01*
X001240Y015443D01*
X001301Y015505D01*
X001301Y015627D02*
X001548Y015627D01*
X001610Y015688D01*
X001610Y015812D01*
X001548Y015874D01*
X001301Y015874D02*
X001240Y015812D01*
X001240Y015688D01*
X001301Y015627D01*
X016740Y008285D02*
X016801Y008347D01*
X017048Y008100D01*
X017110Y008162D01*
X017110Y008285D01*
X017048Y008347D01*
X016801Y008347D01*
X016740Y008285D02*
X016740Y008162D01*
X016801Y008100D01*
X017048Y008100D01*
X017110Y007978D02*
X016863Y007978D01*
X016740Y007855D01*
X016863Y007732D01*
X017110Y007732D01*
X017110Y007610D02*
X016863Y007363D01*
X016801Y007242D02*
X017048Y006995D01*
X017110Y007057D01*
X017110Y007180D01*
X017048Y007242D01*
X016801Y007242D01*
X016740Y007180D01*
X016740Y007057D01*
X016801Y006995D01*
X017048Y006995D01*
X017110Y007363D02*
X016863Y007610D01*
X016925Y007732D02*
X016925Y007978D01*
X018828Y008515D02*
X018828Y008885D01*
X019013Y008885D01*
X019074Y008824D01*
X019074Y008700D01*
X019013Y008638D01*
X018828Y008638D01*
X018951Y008638D02*
X019074Y008515D01*
X019196Y008577D02*
X019258Y008515D01*
X019381Y008515D01*
X019443Y008577D01*
X019443Y008638D01*
X019381Y008700D01*
X019258Y008700D01*
X019196Y008762D01*
X019196Y008824D01*
X019258Y008885D01*
X019381Y008885D01*
X019443Y008824D01*
X019564Y008885D02*
X019811Y008885D01*
X019688Y008885D02*
X019688Y008515D01*
X019749Y009115D02*
X019626Y009115D01*
X019564Y009177D01*
X019626Y009300D02*
X019749Y009300D01*
X019811Y009238D01*
X019811Y009177D01*
X019749Y009115D01*
X019626Y009300D02*
X019564Y009362D01*
X019564Y009424D01*
X019626Y009485D01*
X019749Y009485D01*
X019811Y009424D01*
X019443Y009424D02*
X019443Y009485D01*
X019443Y009424D02*
X019319Y009300D01*
X019319Y009115D01*
X019319Y009300D02*
X019196Y009424D01*
X019196Y009485D01*
X019074Y009424D02*
X019013Y009485D01*
X018889Y009485D01*
X018828Y009424D01*
X018828Y009362D01*
X018889Y009300D01*
X019013Y009300D01*
X019074Y009238D01*
X019074Y009177D01*
X019013Y009115D01*
X018889Y009115D01*
X018828Y009177D01*
X022390Y008949D02*
X022390Y008887D01*
X022452Y008825D01*
X022575Y008825D01*
X022637Y008763D01*
X022637Y008702D01*
X022575Y008640D01*
X022452Y008640D01*
X022390Y008702D01*
X022390Y008949D02*
X022452Y009010D01*
X022575Y009010D01*
X022637Y008949D01*
X022758Y008949D02*
X022758Y008702D01*
X022820Y008640D01*
X022943Y008640D01*
X023005Y008702D01*
X023005Y008949D01*
X022943Y009010D01*
X022820Y009010D01*
X022758Y008949D01*
X023127Y009010D02*
X023127Y008640D01*
X023127Y008825D02*
X023250Y008825D01*
X023127Y009010D02*
X023374Y009010D01*
X023495Y009010D02*
X023742Y009010D01*
X023618Y009010D02*
X023618Y008640D01*
X024232Y008640D02*
X024355Y008763D01*
X024478Y008640D01*
X024478Y009010D01*
X024600Y009010D02*
X024600Y008640D01*
X024600Y008763D02*
X024785Y008763D01*
X024847Y008825D01*
X024847Y008949D01*
X024785Y009010D01*
X024600Y009010D01*
X024723Y008763D02*
X024847Y008640D01*
X024232Y008640D02*
X024232Y009010D01*
X025337Y008949D02*
X025337Y008702D01*
X025583Y008949D01*
X025583Y008702D01*
X025522Y008640D01*
X025398Y008640D01*
X025337Y008702D01*
X025337Y008949D02*
X025398Y009010D01*
X025522Y009010D01*
X025583Y008949D01*
X025705Y008887D02*
X025952Y008640D01*
X026073Y008640D02*
X026258Y008640D01*
X026320Y008702D01*
X026320Y008763D01*
X026258Y008825D01*
X026073Y008825D01*
X025952Y008887D02*
X025705Y008640D01*
X026073Y008640D02*
X026073Y009010D01*
X026258Y009010D01*
X026320Y008949D01*
X026320Y008887D01*
X026258Y008825D01*
X026441Y008763D02*
X026503Y008825D01*
X026627Y008825D01*
X026688Y008763D01*
X026688Y008702D01*
X026627Y008640D01*
X026503Y008640D01*
X026441Y008702D01*
X026441Y008763D01*
X026503Y008825D02*
X026441Y008887D01*
X026441Y008949D01*
X026503Y009010D01*
X026627Y009010D01*
X026688Y008949D01*
X026688Y008887D01*
X026627Y008825D01*
X025166Y007486D02*
X024919Y007239D01*
X024981Y007178D01*
X025104Y007178D01*
X025166Y007239D01*
X025166Y007486D01*
X025104Y007548D01*
X024981Y007548D01*
X024919Y007486D01*
X024919Y007239D01*
X024798Y007239D02*
X024798Y007486D01*
X024736Y007548D01*
X024612Y007548D01*
X024551Y007486D01*
X024551Y007424D01*
X024612Y007363D01*
X024798Y007363D01*
X024798Y007239D02*
X024736Y007178D01*
X024612Y007178D01*
X024551Y007239D01*
X024612Y006948D02*
X024551Y006886D01*
X024551Y006824D01*
X024612Y006763D01*
X024798Y006763D01*
X024798Y006886D02*
X024736Y006948D01*
X024612Y006948D01*
X024798Y006886D02*
X024798Y006639D01*
X024736Y006578D01*
X024612Y006578D01*
X024551Y006639D01*
X024919Y006639D02*
X024919Y006701D01*
X024981Y006763D01*
X025104Y006763D01*
X025166Y006701D01*
X025166Y006639D01*
X025104Y006578D01*
X024981Y006578D01*
X024919Y006639D01*
X024981Y006763D02*
X024919Y006824D01*
X024919Y006886D01*
X024981Y006948D01*
X025104Y006948D01*
X025166Y006886D01*
X025166Y006824D01*
X025104Y006763D01*
X023693Y006824D02*
X023631Y006763D01*
X023508Y006763D01*
X023446Y006824D01*
X023446Y006886D01*
X023508Y006948D01*
X023631Y006948D01*
X023693Y006886D01*
X023693Y006824D01*
X023631Y006763D02*
X023693Y006701D01*
X023693Y006639D01*
X023631Y006578D01*
X023508Y006578D01*
X023446Y006639D01*
X023446Y006701D01*
X023508Y006763D01*
X023324Y006824D02*
X023263Y006763D01*
X023139Y006763D01*
X023078Y006824D01*
X023078Y006886D01*
X023139Y006948D01*
X023263Y006948D01*
X023324Y006886D01*
X023324Y006824D01*
X023263Y006763D02*
X023324Y006701D01*
X023324Y006639D01*
X023263Y006578D01*
X023139Y006578D01*
X023078Y006639D01*
X023078Y006701D01*
X023139Y006763D01*
X023139Y007178D02*
X023078Y007239D01*
X023078Y007301D01*
X023139Y007363D01*
X023263Y007363D01*
X023324Y007301D01*
X023324Y007239D01*
X023263Y007178D01*
X023139Y007178D01*
X023139Y007363D02*
X023078Y007424D01*
X023078Y007486D01*
X023139Y007548D01*
X023263Y007548D01*
X023324Y007486D01*
X023324Y007424D01*
X023263Y007363D01*
X023446Y007486D02*
X023446Y007239D01*
X023693Y007486D01*
X023693Y007239D01*
X023631Y007178D01*
X023508Y007178D01*
X023446Y007239D01*
X023446Y007486D02*
X023508Y007548D01*
X023631Y007548D01*
X023693Y007486D01*
X022597Y006424D02*
X022535Y006485D01*
X022412Y006485D01*
X022350Y006424D01*
X022350Y006177D01*
X022412Y006115D01*
X022535Y006115D01*
X022597Y006177D01*
X022597Y006424D01*
X022350Y006177D01*
X022228Y006177D02*
X022167Y006115D01*
X022043Y006115D01*
X021982Y006177D01*
X021860Y006177D02*
X021798Y006115D01*
X021675Y006115D01*
X021613Y006177D01*
X021613Y006424D01*
X021675Y006485D01*
X021798Y006485D01*
X021860Y006424D01*
X021982Y006424D02*
X022043Y006485D01*
X022167Y006485D01*
X022228Y006424D01*
X022167Y006300D02*
X022228Y006238D01*
X022228Y006177D01*
X022167Y006300D02*
X022043Y006300D01*
X021982Y006362D01*
X021982Y006424D01*
X022043Y005885D02*
X021982Y005824D01*
X021982Y005762D01*
X022043Y005700D01*
X022167Y005700D01*
X022228Y005638D01*
X022228Y005577D01*
X022167Y005515D01*
X022043Y005515D01*
X021982Y005577D01*
X021860Y005577D02*
X021798Y005515D01*
X021675Y005515D01*
X021613Y005577D01*
X021613Y005824D01*
X021675Y005885D01*
X021798Y005885D01*
X021860Y005824D01*
X022043Y005885D02*
X022167Y005885D01*
X022228Y005824D01*
X022350Y005762D02*
X022473Y005885D01*
X022473Y005515D01*
X022350Y005515D02*
X022597Y005515D01*
X022566Y004348D02*
X022615Y004299D01*
X022615Y004106D01*
X022566Y004058D01*
X022470Y004058D01*
X022421Y004106D01*
X022421Y004299D01*
X022470Y004348D01*
X022566Y004348D01*
X022716Y004348D02*
X022861Y004348D01*
X022909Y004299D01*
X022909Y004203D01*
X022861Y004154D01*
X022716Y004154D01*
X022716Y004058D02*
X022716Y004348D01*
X022813Y004154D02*
X022909Y004058D01*
X023011Y004106D02*
X023059Y004058D01*
X023156Y004058D01*
X023204Y004106D01*
X023204Y004299D01*
X023156Y004348D01*
X023059Y004348D01*
X023011Y004299D01*
X023011Y004106D01*
X023107Y004154D02*
X023204Y004058D01*
X023390Y004058D02*
X023487Y004154D01*
X023583Y004058D01*
X023583Y004348D01*
X023685Y004348D02*
X023830Y004348D01*
X023878Y004299D01*
X023878Y004203D01*
X023830Y004154D01*
X023685Y004154D01*
X023781Y004154D02*
X023878Y004058D01*
X023685Y004058D02*
X023685Y004348D01*
X023390Y004348D02*
X023390Y004058D01*
X023487Y003868D02*
X023390Y003771D01*
X023390Y003578D01*
X023390Y003723D02*
X023583Y003723D01*
X023583Y003771D02*
X023583Y003578D01*
X023685Y003626D02*
X023733Y003578D01*
X023830Y003578D01*
X023878Y003626D01*
X023878Y003819D01*
X023830Y003868D01*
X023733Y003868D01*
X023685Y003819D01*
X023685Y003771D01*
X023733Y003723D01*
X023878Y003723D01*
X023583Y003771D02*
X023487Y003868D01*
X023106Y003819D02*
X022912Y003626D01*
X022961Y003578D01*
X023057Y003578D01*
X023106Y003626D01*
X023106Y003819D01*
X023057Y003868D01*
X022961Y003868D01*
X022912Y003819D01*
X022912Y003626D01*
X022811Y003578D02*
X022618Y003578D01*
X022714Y003578D02*
X022714Y003868D01*
X022618Y003771D01*
X022517Y003771D02*
X022517Y003578D01*
X022517Y003723D02*
X022323Y003723D01*
X022323Y003771D02*
X022420Y003868D01*
X022517Y003771D01*
X022323Y003771D02*
X022323Y003578D01*
X022173Y003578D02*
X021979Y003578D01*
X022076Y003578D02*
X022076Y003868D01*
X021979Y003771D01*
X021878Y003578D02*
X021685Y003578D01*
X021781Y003578D02*
X021781Y003868D01*
X021685Y003771D01*
X021583Y003771D02*
X021583Y003578D01*
X021583Y003723D02*
X021390Y003723D01*
X021390Y003771D02*
X021487Y003868D01*
X021583Y003771D01*
X021390Y003771D02*
X021390Y003578D01*
X021173Y003578D02*
X020979Y003578D01*
X021173Y003771D01*
X021173Y003819D01*
X021124Y003868D01*
X021028Y003868D01*
X020979Y003819D01*
X020781Y003868D02*
X020781Y003578D01*
X020685Y003578D02*
X020878Y003578D01*
X020685Y003771D02*
X020781Y003868D01*
X020685Y004058D02*
X020685Y004348D01*
X020781Y004251D01*
X020878Y004348D01*
X020878Y004058D01*
X020979Y004058D02*
X021076Y004058D01*
X021028Y004058D02*
X021028Y004348D01*
X021076Y004348D02*
X020979Y004348D01*
X020583Y004348D02*
X020583Y004058D01*
X020390Y004348D01*
X020390Y004058D01*
X020487Y003868D02*
X020583Y003771D01*
X020583Y003578D01*
X020583Y003723D02*
X020390Y003723D01*
X020390Y003771D02*
X020487Y003868D01*
X020390Y003771D02*
X020390Y003578D01*
X021390Y004058D02*
X021487Y004058D01*
X021438Y004058D02*
X021438Y004348D01*
X021390Y004348D02*
X021487Y004348D01*
X021586Y004348D02*
X021780Y004058D01*
X021780Y004348D01*
X021881Y004348D02*
X022075Y004348D01*
X021978Y004348D02*
X021978Y004058D01*
X022225Y004058D02*
X022322Y004058D01*
X022273Y004058D02*
X022273Y004348D01*
X022225Y004348D02*
X022322Y004348D01*
X021586Y004348D02*
X021586Y004058D01*
X019981Y004563D02*
X019932Y004515D01*
X019836Y004515D01*
X019787Y004563D01*
X019686Y004515D02*
X019493Y004515D01*
X019589Y004515D02*
X019589Y004805D01*
X019493Y004708D01*
X019392Y004708D02*
X019392Y004515D01*
X019392Y004660D02*
X019198Y004660D01*
X019198Y004708D02*
X019295Y004805D01*
X019392Y004708D01*
X019198Y004708D02*
X019198Y004515D01*
X018978Y004348D02*
X018881Y004348D01*
X018929Y004348D02*
X018929Y004058D01*
X018881Y004058D02*
X018978Y004058D01*
X018780Y004058D02*
X018586Y004058D01*
X018586Y004348D01*
X018780Y004348D01*
X018683Y004203D02*
X018586Y004203D01*
X018487Y004348D02*
X018390Y004348D01*
X018438Y004348D02*
X018438Y004058D01*
X018390Y004058D02*
X018487Y004058D01*
X018487Y003868D02*
X018583Y003771D01*
X018583Y003578D01*
X018685Y003578D02*
X018878Y003578D01*
X018781Y003578D02*
X018781Y003868D01*
X018685Y003771D01*
X018583Y003723D02*
X018390Y003723D01*
X018390Y003771D02*
X018487Y003868D01*
X018390Y003771D02*
X018390Y003578D01*
X018173Y003626D02*
X018124Y003578D01*
X018028Y003578D01*
X017979Y003626D01*
X017979Y003723D02*
X018076Y003771D01*
X018124Y003771D01*
X018173Y003723D01*
X018173Y003626D01*
X017979Y003723D02*
X017979Y003868D01*
X018173Y003868D01*
X018026Y004058D02*
X018075Y004106D01*
X018075Y004299D01*
X018026Y004348D01*
X017929Y004348D01*
X017881Y004299D01*
X017881Y004106D01*
X017929Y004058D01*
X018026Y004058D01*
X017780Y004058D02*
X017586Y004058D01*
X017586Y004348D01*
X017780Y004348D01*
X017683Y004203D02*
X017586Y004203D01*
X017487Y004348D02*
X017390Y004348D01*
X017438Y004348D02*
X017438Y004058D01*
X017390Y004058D02*
X017487Y004058D01*
X017487Y003868D02*
X017583Y003771D01*
X017583Y003578D01*
X017685Y003578D02*
X017878Y003578D01*
X017781Y003578D02*
X017781Y003868D01*
X017685Y003771D01*
X017583Y003723D02*
X017390Y003723D01*
X017390Y003771D02*
X017487Y003868D01*
X017390Y003771D02*
X017390Y003578D01*
X016485Y003578D02*
X016340Y003723D01*
X016292Y003674D02*
X016485Y003868D01*
X016292Y003868D02*
X016292Y003578D01*
X016191Y003578D02*
X015997Y003578D01*
X015997Y003868D01*
X015896Y003819D02*
X015848Y003868D01*
X015751Y003868D01*
X015703Y003819D01*
X015703Y003626D01*
X015751Y003578D01*
X015848Y003578D01*
X015896Y003626D01*
X015601Y003626D02*
X015553Y003578D01*
X015456Y003578D01*
X015408Y003626D01*
X015456Y003723D02*
X015553Y003723D01*
X015601Y003674D01*
X015601Y003626D01*
X015456Y003723D02*
X015408Y003771D01*
X015408Y003819D01*
X015456Y003868D01*
X015553Y003868D01*
X015601Y003819D01*
X015604Y004058D02*
X015700Y004058D01*
X015749Y004106D01*
X015850Y004058D02*
X016043Y004058D01*
X015947Y004058D02*
X015947Y004348D01*
X015850Y004251D01*
X015749Y004299D02*
X015700Y004348D01*
X015604Y004348D01*
X015555Y004299D01*
X015555Y004106D01*
X015604Y004058D01*
X015357Y004058D02*
X015357Y004348D01*
X015261Y004348D02*
X015454Y004348D01*
X016015Y004515D02*
X016208Y004515D01*
X016310Y004515D02*
X016503Y004805D01*
X016604Y004805D02*
X016798Y004805D01*
X016701Y004805D02*
X016701Y004515D01*
X016503Y004515D02*
X016310Y004805D01*
X016208Y004805D02*
X016015Y004805D01*
X016015Y004515D01*
X016015Y004660D02*
X016112Y004660D01*
X016210Y004995D02*
X016210Y005285D01*
X016113Y005285D02*
X016307Y005285D01*
X016408Y005285D02*
X016553Y005285D01*
X016601Y005237D01*
X016601Y005140D01*
X016553Y005092D01*
X016408Y005092D01*
X016505Y005092D02*
X016601Y004995D01*
X016703Y005043D02*
X016751Y004995D01*
X016848Y004995D01*
X016896Y005043D01*
X016896Y005140D01*
X016799Y005140D01*
X016703Y005237D02*
X016703Y005043D01*
X016703Y005237D02*
X016751Y005285D01*
X016848Y005285D01*
X016896Y005237D01*
X016997Y005188D02*
X017094Y005285D01*
X017094Y004995D01*
X016997Y004995D02*
X017191Y004995D01*
X017144Y004805D02*
X017095Y004757D01*
X017095Y004563D01*
X017144Y004515D01*
X017240Y004515D01*
X017289Y004563D01*
X017289Y004757D01*
X017240Y004805D01*
X017144Y004805D01*
X016996Y004805D02*
X016899Y004805D01*
X016947Y004805D02*
X016947Y004515D01*
X016899Y004515D02*
X016996Y004515D01*
X016408Y004995D02*
X016408Y005285D01*
X016740Y005890D02*
X016740Y006075D01*
X016801Y006137D01*
X016925Y006137D01*
X016987Y006075D01*
X016987Y005890D01*
X017110Y005890D02*
X016740Y005890D01*
X016987Y006013D02*
X017110Y006137D01*
X017110Y006258D02*
X016740Y006258D01*
X016740Y006443D01*
X016801Y006505D01*
X017048Y006505D01*
X017110Y006443D01*
X017110Y006258D01*
X018903Y005285D02*
X019048Y005285D01*
X019097Y005237D01*
X019097Y005140D01*
X019048Y005092D01*
X018903Y005092D01*
X018903Y004995D02*
X018903Y005285D01*
X019000Y005092D02*
X019097Y004995D01*
X019198Y004995D02*
X019392Y004995D01*
X019493Y005043D02*
X019541Y004995D01*
X019638Y004995D01*
X019686Y005043D01*
X019686Y005092D01*
X019638Y005140D01*
X019541Y005140D01*
X019493Y005188D01*
X019493Y005237D01*
X019541Y005285D01*
X019638Y005285D01*
X019686Y005237D01*
X019787Y005285D02*
X019787Y004995D01*
X019981Y004995D01*
X019884Y005140D02*
X019787Y005140D01*
X019787Y005285D02*
X019981Y005285D01*
X020082Y005285D02*
X020275Y005285D01*
X020179Y005285D02*
X020179Y004995D01*
X019981Y004757D02*
X019981Y004708D01*
X019932Y004660D01*
X019981Y004612D01*
X019981Y004563D01*
X019932Y004660D02*
X019884Y004660D01*
X019787Y004757D02*
X019836Y004805D01*
X019932Y004805D01*
X019981Y004757D01*
X019295Y005140D02*
X019198Y005140D01*
X019198Y005285D02*
X019198Y004995D01*
X019198Y005285D02*
X019392Y005285D01*
X020140Y005577D02*
X020202Y005515D01*
X020325Y005515D01*
X020387Y005577D01*
X020387Y005638D01*
X020325Y005700D01*
X020202Y005700D01*
X020140Y005762D01*
X020140Y005824D01*
X020202Y005885D01*
X020325Y005885D01*
X020387Y005824D01*
X020632Y005885D02*
X020755Y005885D01*
X020693Y005885D02*
X020693Y005577D01*
X020632Y005515D01*
X020570Y005515D01*
X020508Y005577D01*
X020877Y005577D02*
X020938Y005515D01*
X021062Y005515D01*
X021124Y005577D01*
X021124Y005700D01*
X021062Y005762D01*
X021000Y005762D01*
X020877Y005700D01*
X020877Y005885D01*
X021124Y005885D01*
X021062Y006115D02*
X021062Y006485D01*
X020877Y006300D01*
X021124Y006300D01*
X020755Y006485D02*
X020632Y006485D01*
X020693Y006485D02*
X020693Y006177D01*
X020632Y006115D01*
X020570Y006115D01*
X020508Y006177D01*
X020387Y006177D02*
X020325Y006115D01*
X020202Y006115D01*
X020140Y006177D01*
X020202Y006300D02*
X020325Y006300D01*
X020387Y006238D01*
X020387Y006177D01*
X020202Y006300D02*
X020140Y006362D01*
X020140Y006424D01*
X020202Y006485D01*
X020325Y006485D01*
X020387Y006424D01*
X019124Y003868D02*
X018979Y003723D01*
X019173Y003723D01*
X019124Y003578D02*
X019124Y003868D01*
X015307Y003819D02*
X015307Y003868D01*
X015307Y003819D02*
X015210Y003723D01*
X015210Y003578D01*
X015210Y003723D02*
X015113Y003819D01*
X015113Y003868D01*
X015012Y003819D02*
X014964Y003868D01*
X014867Y003868D01*
X014819Y003819D01*
X014819Y003771D01*
X014867Y003723D01*
X014964Y003723D01*
X015012Y003674D01*
X015012Y003626D01*
X014964Y003578D01*
X014867Y003578D01*
X014819Y003626D01*
X024390Y003578D02*
X024390Y003771D01*
X024487Y003868D01*
X024583Y003771D01*
X024583Y003578D01*
X024685Y003626D02*
X024685Y003674D01*
X024733Y003723D01*
X024830Y003723D01*
X024878Y003674D01*
X024878Y003626D01*
X024830Y003578D01*
X024733Y003578D01*
X024685Y003626D01*
X024733Y003723D02*
X024685Y003771D01*
X024685Y003819D01*
X024733Y003868D01*
X024830Y003868D01*
X024878Y003819D01*
X024878Y003771D01*
X024830Y003723D01*
X024583Y003723D02*
X024390Y003723D01*
X024390Y004058D02*
X024390Y004348D01*
X024535Y004348D01*
X024583Y004299D01*
X024583Y004203D01*
X024535Y004154D01*
X024390Y004154D01*
X024487Y004154D02*
X024583Y004058D01*
X024685Y004058D02*
X024830Y004058D01*
X024878Y004106D01*
X024878Y004299D01*
X024830Y004348D01*
X024685Y004348D01*
X024685Y004058D01*
X025390Y004058D02*
X025390Y004348D01*
X025535Y004348D01*
X025583Y004299D01*
X025583Y004106D01*
X025535Y004058D01*
X025390Y004058D01*
X025487Y003868D02*
X025583Y003771D01*
X025583Y003578D01*
X025685Y003578D02*
X025685Y003626D01*
X025878Y003819D01*
X025878Y003868D01*
X025685Y003868D01*
X025583Y003723D02*
X025390Y003723D01*
X025390Y003771D02*
X025487Y003868D01*
X025390Y003771D02*
X025390Y003578D01*
X025685Y004058D02*
X025685Y004106D01*
X025878Y004299D01*
X025878Y004348D01*
X025685Y004348D01*
X026390Y004348D02*
X026390Y004058D01*
X026535Y004058D01*
X026583Y004106D01*
X026583Y004299D01*
X026535Y004348D01*
X026390Y004348D01*
X026685Y004203D02*
X026830Y004203D01*
X026878Y004154D01*
X026878Y004106D01*
X026830Y004058D01*
X026733Y004058D01*
X026685Y004106D01*
X026685Y004203D01*
X026781Y004299D01*
X026878Y004348D01*
X027390Y004348D02*
X027535Y004348D01*
X027583Y004299D01*
X027583Y004106D01*
X027535Y004058D01*
X027390Y004058D01*
X027390Y004348D01*
X027685Y004348D02*
X027685Y004203D01*
X027781Y004251D01*
X027830Y004251D01*
X027878Y004203D01*
X027878Y004106D01*
X027830Y004058D01*
X027733Y004058D01*
X027685Y004106D01*
X027685Y003868D02*
X027685Y003723D01*
X027781Y003771D01*
X027830Y003771D01*
X027878Y003723D01*
X027878Y003626D01*
X027830Y003578D01*
X027733Y003578D01*
X027685Y003626D01*
X027583Y003578D02*
X027583Y003771D01*
X027487Y003868D01*
X027390Y003771D01*
X027390Y003578D01*
X027390Y003723D02*
X027583Y003723D01*
X027685Y003868D02*
X027878Y003868D01*
X027878Y004348D02*
X027685Y004348D01*
X028390Y004348D02*
X028390Y004058D01*
X028535Y004058D01*
X028583Y004106D01*
X028583Y004299D01*
X028535Y004348D01*
X028390Y004348D01*
X028685Y004203D02*
X028878Y004203D01*
X028830Y004348D02*
X028685Y004203D01*
X028830Y004058D02*
X028830Y004348D01*
X029390Y004348D02*
X029535Y004348D01*
X029583Y004299D01*
X029583Y004106D01*
X029535Y004058D01*
X029390Y004058D01*
X029390Y004348D01*
X029685Y004299D02*
X029733Y004348D01*
X029830Y004348D01*
X029878Y004299D01*
X029878Y004251D01*
X029830Y004203D01*
X029878Y004154D01*
X029878Y004106D01*
X029830Y004058D01*
X029733Y004058D01*
X029685Y004106D01*
X029781Y004203D02*
X029830Y004203D01*
X029830Y003868D02*
X029733Y003868D01*
X029685Y003819D01*
X029583Y003771D02*
X029583Y003578D01*
X029685Y003626D02*
X029733Y003578D01*
X029830Y003578D01*
X029878Y003626D01*
X029878Y003674D01*
X029830Y003723D01*
X029781Y003723D01*
X029830Y003723D02*
X029878Y003771D01*
X029878Y003819D01*
X029830Y003868D01*
X029583Y003771D02*
X029487Y003868D01*
X029390Y003771D01*
X029390Y003578D01*
X029390Y003723D02*
X029583Y003723D01*
X028878Y003723D02*
X028685Y003723D01*
X028830Y003868D01*
X028830Y003578D01*
X028583Y003578D02*
X028583Y003771D01*
X028487Y003868D01*
X028390Y003771D01*
X028390Y003578D01*
X028390Y003723D02*
X028583Y003723D01*
X026878Y003674D02*
X026830Y003723D01*
X026685Y003723D01*
X026685Y003626D01*
X026733Y003578D01*
X026830Y003578D01*
X026878Y003626D01*
X026878Y003674D01*
X026781Y003819D02*
X026878Y003868D01*
X026781Y003819D02*
X026685Y003723D01*
X026583Y003723D02*
X026390Y003723D01*
X026390Y003771D02*
X026487Y003868D01*
X026583Y003771D01*
X026583Y003578D01*
X026390Y003578D02*
X026390Y003771D01*
X030390Y003771D02*
X030390Y003578D01*
X030390Y003723D02*
X030583Y003723D01*
X030583Y003771D02*
X030583Y003578D01*
X030685Y003578D02*
X030878Y003771D01*
X030878Y003819D01*
X030830Y003868D01*
X030733Y003868D01*
X030685Y003819D01*
X030583Y003771D02*
X030487Y003868D01*
X030390Y003771D01*
X030390Y004058D02*
X030535Y004058D01*
X030583Y004106D01*
X030583Y004299D01*
X030535Y004348D01*
X030390Y004348D01*
X030390Y004058D01*
X030685Y004058D02*
X030878Y004251D01*
X030878Y004299D01*
X030830Y004348D01*
X030733Y004348D01*
X030685Y004299D01*
X030685Y004058D02*
X030878Y004058D01*
X030878Y003578D02*
X030685Y003578D01*
X031390Y003578D02*
X031390Y003771D01*
X031487Y003868D01*
X031583Y003771D01*
X031583Y003578D01*
X031685Y003578D02*
X031878Y003578D01*
X031781Y003578D02*
X031781Y003868D01*
X031685Y003771D01*
X031583Y003723D02*
X031390Y003723D01*
X031390Y004058D02*
X031535Y004058D01*
X031583Y004106D01*
X031583Y004299D01*
X031535Y004348D01*
X031390Y004348D01*
X031390Y004058D01*
X031685Y004058D02*
X031878Y004058D01*
X031781Y004058D02*
X031781Y004348D01*
X031685Y004251D01*
X032390Y004348D02*
X032390Y004058D01*
X032535Y004058D01*
X032583Y004106D01*
X032583Y004299D01*
X032535Y004348D01*
X032390Y004348D01*
X032685Y004299D02*
X032733Y004348D01*
X032830Y004348D01*
X032878Y004299D01*
X032685Y004106D01*
X032733Y004058D01*
X032830Y004058D01*
X032878Y004106D01*
X032878Y004299D01*
X032685Y004299D02*
X032685Y004106D01*
X032733Y003868D02*
X032830Y003868D01*
X032878Y003819D01*
X032685Y003626D01*
X032733Y003578D01*
X032830Y003578D01*
X032878Y003626D01*
X032878Y003819D01*
X032733Y003868D02*
X032685Y003819D01*
X032685Y003626D01*
X032583Y003578D02*
X032583Y003771D01*
X032487Y003868D01*
X032390Y003771D01*
X032390Y003578D01*
X032390Y003723D02*
X032583Y003723D01*
X034202Y009640D02*
X034140Y009702D01*
X034387Y009949D01*
X034387Y009702D01*
X034325Y009640D01*
X034202Y009640D01*
X034140Y009702D02*
X034140Y009949D01*
X034202Y010010D01*
X034325Y010010D01*
X034387Y009949D01*
X034508Y009887D02*
X034755Y009640D01*
X034877Y009825D02*
X035124Y009825D01*
X035245Y009702D02*
X035492Y009949D01*
X035492Y009702D01*
X035430Y009640D01*
X035307Y009640D01*
X035245Y009702D01*
X035245Y009949D01*
X035307Y010010D01*
X035430Y010010D01*
X035492Y009949D01*
X035062Y010010D02*
X035062Y009640D01*
X034877Y009825D02*
X035062Y010010D01*
X034755Y009887D02*
X034508Y009640D01*
X034508Y010390D02*
X034755Y010637D01*
X034877Y010637D02*
X034877Y010699D01*
X034938Y010760D01*
X035062Y010760D01*
X035124Y010699D01*
X035124Y010637D01*
X035062Y010575D01*
X034938Y010575D01*
X034877Y010637D01*
X034938Y010575D02*
X034877Y010513D01*
X034877Y010452D01*
X034938Y010390D01*
X035062Y010390D01*
X035124Y010452D01*
X035124Y010513D01*
X035062Y010575D01*
X035245Y010452D02*
X035245Y010699D01*
X035307Y010760D01*
X035430Y010760D01*
X035492Y010699D01*
X035245Y010452D01*
X035307Y010390D01*
X035430Y010390D01*
X035492Y010452D01*
X035492Y010699D01*
X035468Y011015D02*
X035468Y011385D01*
X035653Y011385D01*
X035715Y011324D01*
X035715Y011200D01*
X035653Y011138D01*
X035468Y011138D01*
X035592Y011138D02*
X035715Y011015D01*
X035347Y011077D02*
X035347Y011324D01*
X035285Y011385D01*
X035100Y011385D01*
X035100Y011015D01*
X035285Y011015D01*
X035347Y011077D01*
X034978Y011077D02*
X034917Y011015D01*
X034732Y011015D01*
X034732Y011385D01*
X034917Y011385D01*
X034978Y011324D01*
X034978Y011077D01*
X034610Y011015D02*
X034610Y011262D01*
X034487Y011385D01*
X034363Y011262D01*
X034363Y011015D01*
X034363Y011200D02*
X034610Y011200D01*
X034793Y011615D02*
X034917Y011615D01*
X034978Y011677D01*
X035100Y011615D02*
X035100Y011985D01*
X035347Y011985D01*
X035223Y011800D02*
X035100Y011800D01*
X034978Y011924D02*
X034917Y011985D01*
X034793Y011985D01*
X034732Y011924D01*
X034732Y011677D01*
X034793Y011615D01*
X033874Y011615D02*
X033627Y011615D01*
X033750Y011615D02*
X033750Y011985D01*
X033627Y011862D01*
X033505Y011985D02*
X033382Y011985D01*
X033443Y011985D02*
X033443Y011677D01*
X033382Y011615D01*
X033320Y011615D01*
X033258Y011677D01*
X033137Y011677D02*
X033075Y011615D01*
X032952Y011615D01*
X032890Y011677D01*
X032952Y011800D02*
X033075Y011800D01*
X033137Y011738D01*
X033137Y011677D01*
X032952Y011800D02*
X032890Y011862D01*
X032890Y011924D01*
X032952Y011985D01*
X033075Y011985D01*
X033137Y011924D01*
X033075Y011385D02*
X032952Y011385D01*
X032890Y011324D01*
X032890Y011262D01*
X032952Y011200D01*
X033075Y011200D01*
X033137Y011138D01*
X033137Y011077D01*
X033075Y011015D01*
X032952Y011015D01*
X032890Y011077D01*
X033137Y011324D02*
X033075Y011385D01*
X033382Y011385D02*
X033505Y011385D01*
X033443Y011385D02*
X033443Y011077D01*
X033382Y011015D01*
X033320Y011015D01*
X033258Y011077D01*
X033627Y011015D02*
X033874Y011262D01*
X033874Y011324D01*
X033812Y011385D01*
X033688Y011385D01*
X033627Y011324D01*
X033627Y011015D02*
X033874Y011015D01*
X034140Y010699D02*
X034202Y010760D01*
X034325Y010760D01*
X034387Y010699D01*
X034140Y010452D01*
X034202Y010390D01*
X034325Y010390D01*
X034387Y010452D01*
X034387Y010699D01*
X034508Y010637D02*
X034755Y010390D01*
X034140Y010452D02*
X034140Y010699D01*
X032541Y010385D02*
X032294Y010385D01*
X032294Y010015D01*
X032541Y010015D01*
X032418Y010200D02*
X032294Y010200D01*
X032173Y010077D02*
X032111Y010015D01*
X031987Y010015D01*
X031926Y010077D01*
X031926Y010324D01*
X031987Y010385D01*
X032111Y010385D01*
X032173Y010324D01*
X031436Y010324D02*
X031189Y010077D01*
X031189Y010015D01*
X031436Y010015D01*
X031068Y010015D02*
X031068Y010385D01*
X030944Y010262D01*
X030821Y010385D01*
X030821Y010015D01*
X030576Y010015D02*
X030576Y010200D01*
X030699Y010324D01*
X030699Y010385D01*
X030576Y010200D02*
X030453Y010324D01*
X030453Y010385D01*
X031189Y010385D02*
X031436Y010385D01*
X031436Y010324D01*
X019285Y019140D02*
X018915Y019140D01*
X019285Y019140D02*
X019285Y019387D01*
X019285Y019508D02*
X018915Y019508D01*
X019038Y019632D01*
X018915Y019755D01*
X019285Y019755D01*
X019223Y019877D02*
X019285Y019938D01*
X019285Y020062D01*
X019223Y020124D01*
X019162Y020124D01*
X019100Y020062D01*
X019100Y020000D01*
X019100Y020062D02*
X019038Y020124D01*
X018976Y020124D01*
X018915Y020062D01*
X018915Y019938D01*
X018976Y019877D01*
X018915Y020245D02*
X019100Y020245D01*
X019038Y020368D01*
X019038Y020430D01*
X019100Y020492D01*
X019223Y020492D01*
X019285Y020430D01*
X019285Y020307D01*
X019223Y020245D01*
X018915Y020245D02*
X018915Y020492D01*
X018976Y020613D02*
X019038Y020613D01*
X019100Y020675D01*
X019100Y020798D01*
X019162Y020860D01*
X019223Y020860D01*
X019285Y020798D01*
X019285Y020675D01*
X019223Y020613D01*
X019162Y020613D01*
X019100Y020675D01*
X019100Y020798D02*
X019038Y020860D01*
X018976Y020860D01*
X018915Y020798D01*
X018915Y020675D01*
X018976Y020613D01*
D12*
X007875Y016750D02*
X007877Y016765D01*
X007882Y016779D01*
X007891Y016792D01*
X007902Y016802D01*
X007916Y016809D01*
X007930Y016813D01*
X007946Y016813D01*
X007960Y016809D01*
X007974Y016802D01*
X007985Y016792D01*
X007994Y016779D01*
X007999Y016765D01*
X008001Y016750D01*
X007999Y016735D01*
X007994Y016721D01*
X007985Y016708D01*
X007974Y016698D01*
X007960Y016691D01*
X007946Y016687D01*
X007930Y016687D01*
X007916Y016691D01*
X007902Y016698D01*
X007891Y016708D01*
X007882Y016721D01*
X007877Y016735D01*
X007875Y016750D01*
X007813Y016750D02*
X007815Y016772D01*
X007821Y016793D01*
X007830Y016812D01*
X007842Y016830D01*
X007858Y016846D01*
X007875Y016858D01*
X007895Y016867D01*
X007916Y016873D01*
X007938Y016875D01*
X007960Y016873D01*
X007981Y016867D01*
X008000Y016858D01*
X008018Y016846D01*
X008034Y016830D01*
X008046Y016812D01*
X008055Y016793D01*
X008061Y016772D01*
X008063Y016750D01*
X008061Y016728D01*
X008055Y016707D01*
X008046Y016688D01*
X008034Y016670D01*
X008018Y016654D01*
X008001Y016642D01*
X007981Y016633D01*
X007960Y016627D01*
X007938Y016625D01*
X007916Y016627D01*
X007895Y016633D01*
X007875Y016642D01*
X007858Y016654D01*
X007842Y016670D01*
X007830Y016687D01*
X007821Y016707D01*
X007815Y016728D01*
X007813Y016750D01*
X003070Y017341D02*
X002873Y017341D01*
X002873Y017537D01*
X003070Y017341D01*
X002755Y017242D02*
X002755Y016258D01*
X001495Y016258D01*
X001495Y017242D01*
X002755Y017242D01*
X002729Y014850D02*
X002579Y014850D01*
X002654Y014850D02*
X002654Y014475D01*
X002579Y014400D01*
X002504Y014400D01*
X002429Y014475D01*
X002269Y014475D02*
X002194Y014400D01*
X002044Y014400D01*
X001969Y014475D01*
X002044Y014625D02*
X002194Y014625D01*
X002269Y014550D01*
X002269Y014475D01*
X002044Y014625D02*
X001969Y014700D01*
X001969Y014775D01*
X002044Y014850D01*
X002194Y014850D01*
X002269Y014775D01*
X002890Y014775D02*
X002965Y014850D01*
X003115Y014850D01*
X003190Y014775D01*
X003190Y014700D01*
X003115Y014625D01*
X003190Y014550D01*
X003190Y014475D01*
X003115Y014400D01*
X002965Y014400D01*
X002890Y014475D01*
X003040Y014625D02*
X003115Y014625D01*
X006338Y012600D02*
X006338Y012525D01*
X006488Y012375D01*
X006488Y012150D01*
X006488Y012375D02*
X006638Y012525D01*
X006638Y012600D01*
X006798Y012600D02*
X006948Y012450D01*
X007098Y012600D01*
X007098Y012150D01*
X007258Y012150D02*
X007559Y012150D01*
X007719Y012150D02*
X008019Y012450D01*
X008019Y012525D01*
X007944Y012600D01*
X007794Y012600D01*
X007719Y012525D01*
X007559Y012525D02*
X007258Y012225D01*
X007258Y012150D01*
X006798Y012150D02*
X006798Y012600D01*
X007258Y012600D02*
X007559Y012600D01*
X007559Y012525D01*
X008179Y012525D02*
X008179Y012450D01*
X008254Y012375D01*
X008404Y012375D01*
X008479Y012300D01*
X008479Y012225D01*
X008404Y012150D01*
X008254Y012150D01*
X008179Y012225D01*
X008179Y012300D01*
X008254Y012375D01*
X008404Y012375D02*
X008479Y012450D01*
X008479Y012525D01*
X008404Y012600D01*
X008254Y012600D01*
X008179Y012525D01*
X008019Y012150D02*
X007719Y012150D01*
X008640Y012375D02*
X008940Y012375D01*
X008865Y012150D02*
X008865Y012600D01*
X008640Y012375D01*
X010499Y012522D02*
X010499Y012115D01*
X010703Y011915D02*
X011110Y011508D01*
X011008Y011307D02*
X011110Y011205D01*
X011110Y011002D01*
X011008Y010900D01*
X010601Y011307D01*
X011008Y011307D01*
X010703Y011508D02*
X011110Y011915D01*
X011110Y012115D02*
X011008Y012115D01*
X010601Y012522D01*
X010499Y012522D01*
X010601Y012723D02*
X010499Y012825D01*
X010499Y013028D01*
X010601Y013130D01*
X011008Y012723D01*
X011110Y012825D01*
X011110Y013028D01*
X011008Y013130D01*
X010601Y013130D01*
X010601Y012723D02*
X011008Y012723D01*
X011489Y012825D02*
X011489Y013028D01*
X011591Y013130D01*
X011998Y012723D01*
X012100Y012825D01*
X012100Y013028D01*
X011998Y013130D01*
X011591Y013130D01*
X011489Y012825D02*
X011591Y012723D01*
X011998Y012723D01*
X011998Y012522D02*
X011795Y012522D01*
X011693Y012421D01*
X011693Y012115D01*
X011693Y011915D02*
X012100Y011508D01*
X011998Y011307D02*
X012100Y011205D01*
X012100Y011002D01*
X011998Y010900D01*
X011591Y011307D01*
X011998Y011307D01*
X011693Y011508D02*
X012100Y011915D01*
X012100Y012115D02*
X012100Y012421D01*
X011998Y012522D01*
X012100Y012115D02*
X011489Y012115D01*
X011591Y011307D02*
X011489Y011205D01*
X011489Y011002D01*
X011591Y010900D01*
X011998Y010900D01*
X011008Y010900D02*
X010601Y010900D01*
X010499Y011002D01*
X010499Y011205D01*
X010601Y011307D01*
X013900Y008740D02*
X013900Y008440D01*
X013900Y008590D02*
X013450Y008590D01*
X013600Y008440D01*
X013675Y008279D02*
X013675Y007979D01*
X013450Y008204D01*
X013900Y008204D01*
X013825Y007819D02*
X013675Y007819D01*
X013600Y007744D01*
X013600Y007669D01*
X013675Y007519D01*
X013450Y007519D01*
X013450Y007819D01*
X013825Y007819D02*
X013900Y007744D01*
X013900Y007594D01*
X013825Y007519D01*
X013825Y007359D02*
X013750Y007359D01*
X013675Y007284D01*
X013675Y007133D01*
X013600Y007058D01*
X013525Y007058D01*
X013450Y007133D01*
X013450Y007284D01*
X013525Y007359D01*
X013825Y007359D02*
X013900Y007284D01*
X013900Y007133D01*
X013825Y007058D01*
X013900Y006898D02*
X013900Y006598D01*
X013450Y006598D01*
X013450Y006363D02*
X013675Y006138D01*
X013675Y006438D01*
X013900Y006363D02*
X013450Y006363D01*
X013450Y005978D02*
X013525Y005978D01*
X013825Y005677D01*
X013900Y005677D01*
X013450Y005677D02*
X013450Y005978D01*
X011225Y003544D02*
X011150Y003544D01*
X011150Y003244D01*
X011300Y003086D02*
X011450Y002860D01*
X011600Y003086D01*
X011600Y003244D02*
X011525Y003244D01*
X011225Y003544D01*
X011150Y002860D02*
X011600Y002860D01*
X011600Y002625D02*
X011150Y002625D01*
X011375Y002400D01*
X011375Y002700D01*
X010300Y000727D02*
X010300Y000500D01*
X010300Y000613D02*
X009960Y000613D01*
X010073Y000500D01*
X017650Y006900D02*
X017650Y007511D01*
X017955Y007511D01*
X018057Y007409D01*
X018057Y007205D01*
X017955Y007104D01*
X017650Y007104D01*
X017854Y007104D02*
X018057Y006900D01*
X018258Y007002D02*
X018258Y007205D01*
X018359Y007307D01*
X018563Y007307D01*
X018665Y007205D01*
X018665Y007104D01*
X018258Y007104D01*
X018258Y007002D02*
X018359Y006900D01*
X018563Y006900D01*
X018865Y007307D02*
X019069Y006900D01*
X019272Y007307D01*
X020081Y007409D02*
X020183Y007511D01*
X020386Y007511D01*
X020488Y007409D01*
X020488Y007307D01*
X020081Y006900D01*
X020488Y006900D01*
X020321Y007963D02*
X020321Y008413D01*
X020621Y008413D01*
X020781Y008413D02*
X021007Y008413D01*
X021082Y008338D01*
X021082Y008188D01*
X021007Y008113D01*
X020781Y008113D01*
X020931Y008113D02*
X021082Y007963D01*
X021242Y008038D02*
X021317Y007963D01*
X021467Y007963D01*
X021542Y008038D01*
X021542Y008113D01*
X021467Y008188D01*
X021317Y008188D01*
X021242Y008263D01*
X021242Y008338D01*
X021317Y008413D01*
X021467Y008413D01*
X021542Y008338D01*
X021702Y008413D02*
X022002Y008413D01*
X021852Y008413D02*
X021852Y007963D01*
X020781Y007963D02*
X020781Y008413D01*
X020471Y008188D02*
X020321Y008188D01*
X020161Y008338D02*
X020086Y008413D01*
X019936Y008413D01*
X019861Y008338D01*
X019861Y008038D01*
X019936Y007963D01*
X020086Y007963D01*
X020161Y008038D01*
X027156Y007775D02*
X027156Y007700D01*
X027231Y007625D01*
X027382Y007625D01*
X027457Y007550D01*
X027457Y007475D01*
X027382Y007400D01*
X027231Y007400D01*
X027156Y007475D01*
X027156Y007775D02*
X027231Y007850D01*
X027382Y007850D01*
X027457Y007775D01*
X027767Y007850D02*
X027917Y007850D01*
X027842Y007850D02*
X027842Y007475D01*
X027767Y007400D01*
X027692Y007400D01*
X027617Y007475D01*
X028077Y007475D02*
X028152Y007400D01*
X028302Y007400D01*
X028377Y007475D01*
X028377Y007625D01*
X028302Y007700D01*
X028227Y007700D01*
X028077Y007625D01*
X028077Y007850D01*
X028377Y007850D01*
X028302Y006350D02*
X028077Y006125D01*
X028377Y006125D01*
X028302Y005900D02*
X028302Y006350D01*
X027917Y006350D02*
X027767Y006350D01*
X027842Y006350D02*
X027842Y005975D01*
X027767Y005900D01*
X027692Y005900D01*
X027617Y005975D01*
X027457Y005975D02*
X027457Y006050D01*
X027382Y006125D01*
X027231Y006125D01*
X027156Y006200D01*
X027156Y006275D01*
X027231Y006350D01*
X027382Y006350D01*
X027457Y006275D01*
X027457Y005975D02*
X027382Y005900D01*
X027231Y005900D01*
X027156Y005975D01*
X032400Y006100D02*
X032400Y005800D01*
X032400Y006100D02*
X032475Y006100D01*
X032775Y005800D01*
X032850Y005800D01*
X032625Y006260D02*
X032625Y006561D01*
X032850Y006486D02*
X032400Y006486D01*
X032625Y006260D01*
X032400Y006721D02*
X032850Y006721D01*
X032850Y007021D01*
X032775Y007181D02*
X032850Y007256D01*
X032850Y007406D01*
X032775Y007481D01*
X032700Y007481D01*
X032625Y007406D01*
X032625Y007256D01*
X032550Y007181D01*
X032475Y007181D01*
X032400Y007256D01*
X032400Y007406D01*
X032475Y007481D01*
X032550Y007642D02*
X032400Y007792D01*
X032850Y007792D01*
X032850Y007642D02*
X032850Y007942D01*
X032775Y008102D02*
X032850Y008177D01*
X032850Y008327D01*
X032775Y008402D01*
X032700Y008402D01*
X032625Y008327D01*
X032625Y008252D01*
X032625Y008327D02*
X032550Y008402D01*
X032475Y008402D01*
X032400Y008327D01*
X032400Y008177D01*
X032475Y008102D01*
X032475Y008562D02*
X032400Y008637D01*
X032400Y008788D01*
X032475Y008863D01*
X032550Y008863D01*
X032625Y008788D01*
X032625Y008637D01*
X032550Y008562D01*
X032475Y008562D01*
X032625Y008637D02*
X032700Y008562D01*
X032775Y008562D01*
X032850Y008637D01*
X032850Y008788D01*
X032775Y008863D01*
X032700Y008863D01*
X032625Y008788D01*
X033125Y009625D02*
X033125Y010125D01*
X033125Y010375D02*
X033625Y010375D01*
X033625Y010125D02*
X033625Y009625D01*
X034688Y008725D02*
X034688Y008650D01*
X034763Y008575D01*
X034913Y008575D01*
X034988Y008500D01*
X034988Y008425D01*
X034913Y008350D01*
X034763Y008350D01*
X034688Y008425D01*
X034688Y008725D02*
X034763Y008800D01*
X034913Y008800D01*
X034988Y008725D01*
X035298Y008800D02*
X035448Y008800D01*
X035373Y008800D02*
X035373Y008425D01*
X035298Y008350D01*
X035223Y008350D01*
X035148Y008425D01*
X035608Y008350D02*
X035909Y008350D01*
X035758Y008350D02*
X035758Y008800D01*
X035608Y008650D01*
X033625Y010875D02*
X033125Y010875D01*
X033436Y013200D02*
X033436Y013650D01*
X033210Y013425D01*
X033511Y013425D01*
X033671Y013650D02*
X033671Y013200D01*
X033971Y013200D01*
X034131Y013275D02*
X034206Y013200D01*
X034356Y013200D01*
X034431Y013275D01*
X034431Y013350D01*
X034356Y013425D01*
X034206Y013425D01*
X034131Y013500D01*
X034131Y013575D01*
X034206Y013650D01*
X034356Y013650D01*
X034431Y013575D01*
X034592Y013575D02*
X034667Y013650D01*
X034817Y013650D01*
X034892Y013575D01*
X034892Y013500D01*
X034817Y013425D01*
X034892Y013350D01*
X034892Y013275D01*
X034817Y013200D01*
X034667Y013200D01*
X034592Y013275D01*
X034742Y013425D02*
X034817Y013425D01*
X035052Y013575D02*
X035127Y013650D01*
X035277Y013650D01*
X035352Y013575D01*
X035352Y013500D01*
X035052Y013200D01*
X035352Y013200D01*
X033050Y013575D02*
X032750Y013275D01*
X032750Y013200D01*
X032750Y013650D02*
X033050Y013650D01*
X033050Y013575D01*
X033534Y017284D02*
X034716Y017284D01*
X034716Y018466D02*
X033534Y018466D01*
X034763Y006300D02*
X034688Y006225D01*
X034688Y006150D01*
X034763Y006075D01*
X034913Y006075D01*
X034988Y006000D01*
X034988Y005925D01*
X034913Y005850D01*
X034763Y005850D01*
X034688Y005925D01*
X034988Y006225D02*
X034913Y006300D01*
X034763Y006300D01*
X035298Y006300D02*
X035448Y006300D01*
X035373Y006300D02*
X035373Y005925D01*
X035298Y005850D01*
X035223Y005850D01*
X035148Y005925D01*
X035608Y005850D02*
X035909Y006150D01*
X035909Y006225D01*
X035833Y006300D01*
X035683Y006300D01*
X035608Y006225D01*
X035608Y005850D02*
X035909Y005850D01*
X004390Y007175D02*
X004315Y007100D01*
X004165Y007100D01*
X004090Y007175D01*
X004390Y007475D01*
X004390Y007175D01*
X004090Y007175D02*
X004090Y007475D01*
X004165Y007550D01*
X004315Y007550D01*
X004390Y007475D01*
X003929Y007475D02*
X003629Y007175D01*
X003704Y007100D01*
X003854Y007100D01*
X003929Y007175D01*
X003929Y007475D01*
X003854Y007550D01*
X003704Y007550D01*
X003629Y007475D01*
X003629Y007175D01*
X003469Y007175D02*
X003394Y007100D01*
X003244Y007100D01*
X003169Y007175D01*
X003244Y007325D02*
X003394Y007325D01*
X003469Y007250D01*
X003469Y007175D01*
X003244Y007325D02*
X003169Y007400D01*
X003169Y007475D01*
X003244Y007550D01*
X003394Y007550D01*
X003469Y007475D01*
X003009Y007100D02*
X002708Y007100D01*
X002708Y007550D01*
X002473Y007550D02*
X002248Y007325D01*
X002548Y007325D01*
X002473Y007100D02*
X002473Y007550D01*
X002088Y007550D02*
X002088Y007475D01*
X001788Y007175D01*
X001788Y007100D01*
X001788Y007550D02*
X002088Y007550D01*
D13*
X023000Y006250D03*
X023500Y006250D03*
X024000Y006250D03*
X024625Y006250D03*
X025125Y006250D03*
X025625Y006250D03*
X025625Y005625D03*
X025125Y005625D03*
X024625Y005625D03*
X024000Y005625D03*
X023500Y005625D03*
X023000Y005625D03*
D14*
X023500Y005625D01*
X023500Y006250D02*
X024000Y006250D01*
X024625Y006250D02*
X025125Y006250D01*
X025125Y005625D02*
X025625Y005625D01*
X028621Y010804D02*
X028621Y012281D01*
X030393Y011198D02*
X031279Y011198D01*
X031279Y016021D01*
X030786Y016021D01*
X030786Y014643D01*
X030393Y014249D01*
X030393Y011198D01*
X030097Y010804D02*
X030097Y014741D01*
X030590Y014741D01*
X030590Y022221D01*
X030983Y022615D01*
X031771Y022615D01*
X031771Y019804D01*
X031574Y019958D02*
X031574Y020548D01*
X031180Y020548D01*
X031180Y019958D01*
X031574Y019958D01*
X031574Y021729D02*
X031180Y021729D01*
X031180Y022418D01*
X031574Y022418D01*
X031574Y021729D01*
X031771Y017865D02*
X031771Y010804D01*
X030097Y010804D01*
X029113Y010804D01*
X029113Y014741D01*
X030097Y014741D01*
X029113Y014741D02*
X015137Y014741D01*
X015137Y010804D01*
X014153Y010804D01*
X014153Y014741D01*
X015137Y014741D01*
X014153Y014741D02*
X013660Y014741D01*
X013660Y022221D01*
X013267Y022615D01*
X012479Y022615D01*
X012479Y019804D01*
X012676Y019958D02*
X012676Y020548D01*
X013070Y020548D01*
X013070Y019958D01*
X012676Y019958D01*
X012676Y021729D02*
X012676Y022418D01*
X013070Y022418D01*
X013070Y021729D01*
X012676Y021729D01*
X014125Y021875D02*
X014125Y017875D01*
X015625Y017875D01*
X014625Y016875D01*
X014125Y016875D01*
X014313Y016688D01*
X014313Y017063D01*
X014125Y016875D01*
X013464Y016414D02*
X013464Y017694D01*
X012971Y017694D01*
X012971Y016414D01*
X013464Y016414D01*
X013464Y016021D02*
X012971Y016021D01*
X012971Y011198D01*
X013857Y011198D01*
X013857Y014249D01*
X013464Y014643D01*
X013464Y016021D01*
X016125Y017231D02*
X016125Y014731D01*
X016625Y014731D02*
X016625Y016356D01*
X017125Y016356D02*
X017125Y014731D01*
X017625Y014731D02*
X017625Y016356D01*
X018125Y016356D02*
X018125Y014731D01*
X018625Y014731D02*
X018625Y016356D01*
X019125Y016356D02*
X019125Y014731D01*
X019625Y014731D02*
X019625Y016356D01*
X020125Y016356D02*
X020125Y014731D01*
X020625Y014731D02*
X020625Y016356D01*
X021125Y016356D02*
X021125Y014731D01*
X021625Y014731D02*
X021625Y016356D01*
X022625Y016356D02*
X022625Y014731D01*
X022125Y014731D02*
X022125Y017231D01*
X021125Y017875D02*
X021125Y021875D01*
X014125Y021875D01*
X015625Y017875D02*
X021125Y017875D01*
X023125Y016356D02*
X023125Y014731D01*
X023625Y014731D02*
X023625Y016356D01*
X024125Y016356D02*
X024125Y014731D01*
X024625Y014731D02*
X024625Y016356D01*
X025125Y016356D02*
X025125Y014731D01*
X025625Y014731D02*
X025625Y016356D01*
X026125Y016356D02*
X026125Y014731D01*
X026625Y014731D02*
X026625Y016356D01*
X027125Y016356D02*
X027125Y014731D01*
X027527Y014750D02*
X028125Y014152D01*
X028625Y014750D01*
X028125Y014731D02*
X028125Y017231D01*
X027625Y016356D02*
X027625Y014731D01*
X030786Y016414D02*
X030786Y017694D01*
X031279Y017694D01*
X031279Y016414D01*
X030786Y016414D01*
X029113Y010804D02*
X028621Y010804D01*
X015629Y010804D02*
X015137Y010804D01*
X015629Y010804D02*
X015629Y012281D01*
X014153Y010804D02*
X012479Y010804D01*
X012479Y017865D01*
X008125Y009625D02*
X007995Y009625D01*
X007875Y009625D01*
X007125Y009625D01*
X007125Y009125D01*
X007875Y009125D01*
X007995Y009125D01*
X008125Y009125D01*
X008125Y009625D01*
X007995Y009625D02*
X007995Y009125D01*
X007875Y009125D02*
X007875Y009625D01*
X007875Y008625D02*
X007125Y008625D01*
X007125Y008125D01*
X007875Y008125D01*
X007995Y008125D01*
X008125Y008125D01*
X008125Y008625D01*
X007995Y008625D01*
X007875Y008625D01*
X007875Y008125D01*
X007995Y008125D02*
X007995Y008625D01*
X007995Y007625D02*
X007875Y007625D01*
X007125Y007625D01*
X007125Y007125D01*
X007875Y007125D01*
X007995Y007125D01*
X008125Y007125D01*
X008125Y007625D01*
X007995Y007625D01*
X007995Y007125D01*
X007875Y007125D02*
X007875Y007625D01*
X007875Y006625D02*
X007125Y006625D01*
X007125Y006125D01*
X007875Y006125D01*
X007995Y006125D01*
X008125Y006125D01*
X008125Y006625D01*
X007995Y006625D01*
X007875Y006625D01*
X007875Y006125D01*
X007995Y006125D02*
X007995Y006625D01*
X007995Y005625D02*
X007875Y005625D01*
X007125Y005625D01*
X007125Y005125D01*
X007875Y005125D01*
X007995Y005125D01*
X008125Y005125D01*
X008125Y005625D01*
X007995Y005625D01*
X007995Y005125D01*
X007875Y005125D02*
X007875Y005625D01*
X007875Y004625D02*
X007125Y004625D01*
X007125Y004125D01*
X007875Y004125D01*
X007995Y004125D01*
X008125Y004125D01*
X008125Y004625D01*
X007995Y004625D01*
X007875Y004625D01*
X007875Y004125D01*
X007995Y004125D02*
X007995Y004625D01*
X007995Y003625D02*
X007875Y003625D01*
X007125Y003625D01*
X007125Y003125D01*
X007875Y003125D01*
X007995Y003125D01*
X008125Y003125D01*
X008125Y003625D01*
X007995Y003625D01*
X007995Y003125D01*
X007875Y003125D02*
X007875Y003625D01*
X007875Y002625D02*
X007125Y002625D01*
X007125Y002125D01*
X007875Y002125D01*
X007995Y002125D01*
X008125Y002125D01*
X008125Y002625D01*
X007995Y002625D01*
X007875Y002625D01*
X007875Y002125D01*
X007995Y002125D02*
X007995Y002625D01*
D15*
X002822Y002522D02*
X002822Y002422D01*
X002822Y004622D02*
X002822Y004722D01*
X001375Y008005D02*
X004875Y008005D01*
X012795Y009925D02*
X012795Y004825D01*
X032375Y013245D02*
X035875Y013245D01*
X033255Y009375D02*
X033255Y005375D01*
X034428Y004722D02*
X034428Y004622D01*
X034428Y002522D02*
X034428Y002422D01*
X034428Y019028D02*
X034428Y019128D01*
X034428Y021228D02*
X034428Y021328D01*
X009581Y020793D02*
X009581Y020573D01*
X009581Y020683D02*
X009434Y020683D01*
X009434Y020573D02*
X009434Y020793D01*
X009360Y020793D02*
X009213Y020793D01*
X009287Y020793D02*
X009287Y020573D01*
X009139Y020683D02*
X009102Y020646D01*
X008992Y020646D01*
X008992Y020573D02*
X008992Y020793D01*
X009102Y020793D01*
X009139Y020756D01*
X009139Y020683D01*
X008918Y020719D02*
X008771Y020573D01*
X008918Y020573D01*
X008918Y020719D02*
X008918Y020756D01*
X008881Y020793D01*
X008808Y020793D01*
X008771Y020756D01*
X008697Y020793D02*
X008550Y020646D01*
X008587Y020683D02*
X008697Y020573D01*
X008550Y020573D02*
X008550Y020793D01*
X008476Y020756D02*
X008439Y020793D01*
X008366Y020793D01*
X008329Y020756D01*
X008329Y020609D01*
X008366Y020573D01*
X008439Y020573D01*
X008476Y020609D01*
X008255Y020573D02*
X008255Y020719D01*
X008182Y020793D01*
X008108Y020719D01*
X008108Y020573D01*
X008108Y020683D02*
X008255Y020683D01*
X008034Y020793D02*
X007961Y020793D01*
X007997Y020793D02*
X007997Y020609D01*
X007961Y020573D01*
X007924Y020573D01*
X007887Y020609D01*
X007813Y020683D02*
X007666Y020683D01*
X007592Y020756D02*
X007555Y020793D01*
X007482Y020793D01*
X007445Y020756D01*
X007445Y020609D01*
X007482Y020573D01*
X007555Y020573D01*
X007592Y020609D01*
X007592Y020756D01*
X007371Y020793D02*
X007298Y020793D01*
X007335Y020793D02*
X007335Y020573D01*
X007371Y020573D02*
X007298Y020573D01*
X007224Y020609D02*
X007224Y020756D01*
X007187Y020793D01*
X007077Y020793D01*
X007077Y020573D01*
X007187Y020573D01*
X007224Y020609D01*
X007003Y020609D02*
X007003Y020793D01*
X006856Y020793D02*
X006856Y020609D01*
X006893Y020573D01*
X006966Y020573D01*
X007003Y020609D01*
X006782Y020573D02*
X006782Y020719D01*
X006708Y020793D01*
X006635Y020719D01*
X006635Y020573D01*
X006635Y020683D02*
X006782Y020683D01*
X002822Y021228D02*
X002822Y021328D01*
X002822Y019128D02*
X002822Y019028D01*
X002568Y017825D02*
X002568Y017604D01*
X002642Y017604D02*
X002789Y017604D01*
X002789Y017751D02*
X002642Y017604D01*
X002568Y017715D02*
X002421Y017715D01*
X002421Y017825D02*
X002421Y017604D01*
X002347Y017604D02*
X002347Y017825D01*
X002273Y017751D01*
X002200Y017825D01*
X002200Y017604D01*
X002126Y017641D02*
X002089Y017604D01*
X002016Y017604D01*
X001979Y017641D01*
X002126Y017788D01*
X002126Y017641D01*
X002126Y017788D02*
X002089Y017825D01*
X002016Y017825D01*
X001979Y017788D01*
X001979Y017641D01*
X001905Y017641D02*
X001868Y017604D01*
X001795Y017604D01*
X001758Y017641D01*
X001905Y017788D01*
X001905Y017641D01*
X001905Y017788D02*
X001868Y017825D01*
X001795Y017825D01*
X001758Y017788D01*
X001758Y017641D01*
X001684Y017641D02*
X001684Y017604D01*
X001647Y017604D01*
X001647Y017641D01*
X001684Y017641D01*
X001573Y017604D02*
X001426Y017604D01*
X001573Y017751D01*
X001573Y017788D01*
X001536Y017825D01*
X001463Y017825D01*
X001426Y017788D01*
X002642Y017751D02*
X002789Y017751D01*
D16*
X004625Y018125D02*
X004875Y017875D01*
X005375Y017875D01*
X005625Y018125D01*
X005625Y018625D01*
X005375Y018875D01*
X005625Y019125D01*
X005625Y019625D01*
X005375Y019875D01*
X004875Y019875D01*
X004625Y019625D01*
X004625Y019125D01*
X004875Y018875D01*
X005375Y018875D01*
X004875Y018875D02*
X004625Y018625D01*
X004625Y018125D01*
X004875Y019875D02*
X004625Y020125D01*
X004625Y020625D01*
X004875Y020875D01*
X004625Y021125D01*
X004625Y021625D01*
X004875Y021875D01*
X005375Y021875D01*
X005625Y021625D01*
X005625Y021125D01*
X005375Y020875D01*
X005625Y020625D01*
X005625Y020125D01*
X005375Y019875D01*
X005375Y020875D02*
X004875Y020875D01*
X001672Y020178D02*
X001674Y020245D01*
X001680Y020313D01*
X001690Y020380D01*
X001704Y020446D01*
X001721Y020511D01*
X001743Y020575D01*
X001768Y020638D01*
X001797Y020699D01*
X001829Y020758D01*
X001865Y020815D01*
X001904Y020870D01*
X001946Y020923D01*
X001991Y020973D01*
X002039Y021020D01*
X002090Y021065D01*
X002143Y021106D01*
X002199Y021145D01*
X002257Y021180D01*
X002317Y021211D01*
X002378Y021239D01*
X002441Y021263D01*
X002505Y021284D01*
X002571Y021300D01*
X002637Y021313D01*
X002704Y021322D01*
X002771Y021327D01*
X002839Y021328D01*
X002906Y021325D01*
X002973Y021318D01*
X003040Y021307D01*
X003106Y021292D01*
X003171Y021274D01*
X003235Y021251D01*
X003297Y021225D01*
X003358Y021196D01*
X003416Y021162D01*
X003473Y021126D01*
X003528Y021086D01*
X003580Y021043D01*
X003629Y020997D01*
X003676Y020948D01*
X003720Y020897D01*
X003760Y020843D01*
X003798Y020787D01*
X003832Y020728D01*
X003862Y020668D01*
X003889Y020606D01*
X003913Y020543D01*
X003932Y020478D01*
X003948Y020413D01*
X003960Y020346D01*
X003968Y020279D01*
X003972Y020212D01*
X003972Y020144D01*
X003968Y020077D01*
X003960Y020010D01*
X003948Y019943D01*
X003932Y019878D01*
X003913Y019813D01*
X003889Y019750D01*
X003862Y019688D01*
X003832Y019628D01*
X003798Y019569D01*
X003760Y019513D01*
X003720Y019459D01*
X003676Y019408D01*
X003629Y019359D01*
X003580Y019313D01*
X003528Y019270D01*
X003473Y019230D01*
X003416Y019194D01*
X003358Y019160D01*
X003297Y019131D01*
X003235Y019105D01*
X003171Y019082D01*
X003106Y019064D01*
X003040Y019049D01*
X002973Y019038D01*
X002906Y019031D01*
X002839Y019028D01*
X002771Y019029D01*
X002704Y019034D01*
X002637Y019043D01*
X002571Y019056D01*
X002505Y019072D01*
X002441Y019093D01*
X002378Y019117D01*
X002317Y019145D01*
X002257Y019176D01*
X002199Y019211D01*
X002143Y019250D01*
X002090Y019291D01*
X002039Y019336D01*
X001991Y019383D01*
X001946Y019433D01*
X001904Y019486D01*
X001865Y019541D01*
X001829Y019598D01*
X001797Y019657D01*
X001768Y019718D01*
X001743Y019781D01*
X001721Y019845D01*
X001704Y019910D01*
X001690Y019976D01*
X001680Y020043D01*
X001674Y020111D01*
X001672Y020178D01*
X001775Y015775D02*
X003475Y015775D01*
X003492Y015773D01*
X003509Y015769D01*
X003525Y015762D01*
X003539Y015752D01*
X003552Y015739D01*
X003562Y015725D01*
X003569Y015709D01*
X003573Y015692D01*
X003575Y015675D01*
X003575Y015075D01*
X003573Y015058D01*
X003569Y015041D01*
X003562Y015025D01*
X003552Y015011D01*
X003539Y014998D01*
X003525Y014988D01*
X003509Y014981D01*
X003492Y014977D01*
X003475Y014975D01*
X001775Y014975D01*
X001758Y014977D01*
X001741Y014981D01*
X001725Y014988D01*
X001711Y014998D01*
X001698Y015011D01*
X001688Y015025D01*
X001681Y015041D01*
X001677Y015058D01*
X001675Y015075D01*
X001675Y015675D01*
X001677Y015692D01*
X001681Y015709D01*
X001688Y015725D01*
X001698Y015739D01*
X001711Y015752D01*
X001725Y015762D01*
X001741Y015769D01*
X001758Y015773D01*
X001775Y015775D01*
X002125Y013525D02*
X002125Y011225D01*
X010125Y011225D01*
X010125Y011975D01*
X010086Y011977D01*
X010047Y011983D01*
X010009Y011992D01*
X009972Y012005D01*
X009936Y012022D01*
X009903Y012042D01*
X009871Y012066D01*
X009842Y012092D01*
X009816Y012121D01*
X009792Y012153D01*
X009772Y012186D01*
X009755Y012222D01*
X009742Y012259D01*
X009733Y012297D01*
X009727Y012336D01*
X009725Y012375D01*
X009727Y012414D01*
X009733Y012453D01*
X009742Y012491D01*
X009755Y012528D01*
X009772Y012564D01*
X009792Y012597D01*
X009816Y012629D01*
X009842Y012658D01*
X009871Y012684D01*
X009903Y012708D01*
X009936Y012728D01*
X009972Y012745D01*
X010009Y012758D01*
X010047Y012767D01*
X010086Y012773D01*
X010125Y012775D01*
X010125Y013525D01*
X002125Y013525D01*
X006125Y010375D02*
X006125Y009675D01*
X006125Y009075D02*
X006125Y008675D01*
X006125Y008075D02*
X006125Y007675D01*
X006125Y007075D02*
X006125Y006675D01*
X006125Y006075D02*
X006125Y005675D01*
X006125Y005075D02*
X006125Y004675D01*
X006125Y004075D02*
X006125Y003675D01*
X006125Y003075D02*
X006125Y002675D01*
X006125Y002075D02*
X006125Y001375D01*
X009125Y001375D01*
X009125Y002075D01*
X008625Y001775D02*
X008627Y001795D01*
X008633Y001813D01*
X008642Y001831D01*
X008654Y001846D01*
X008669Y001858D01*
X008687Y001867D01*
X008705Y001873D01*
X008725Y001875D01*
X008745Y001873D01*
X008763Y001867D01*
X008781Y001858D01*
X008796Y001846D01*
X008808Y001831D01*
X008817Y001813D01*
X008823Y001795D01*
X008825Y001775D01*
X008823Y001755D01*
X008817Y001737D01*
X008808Y001719D01*
X008796Y001704D01*
X008781Y001692D01*
X008763Y001683D01*
X008745Y001677D01*
X008725Y001675D01*
X008705Y001677D01*
X008687Y001683D01*
X008669Y001692D01*
X008654Y001704D01*
X008642Y001719D01*
X008633Y001737D01*
X008627Y001755D01*
X008625Y001775D01*
X009775Y001725D02*
X009775Y001025D01*
X010475Y001025D01*
X010475Y001725D01*
X009775Y001725D01*
X009725Y001075D02*
X009725Y009675D01*
X009727Y009701D01*
X009732Y009727D01*
X009740Y009752D01*
X009752Y009775D01*
X009766Y009797D01*
X009784Y009816D01*
X009803Y009834D01*
X009825Y009848D01*
X009848Y009860D01*
X009873Y009868D01*
X009899Y009873D01*
X009925Y009875D01*
X010325Y009875D01*
X010351Y009873D01*
X010377Y009868D01*
X010402Y009860D01*
X010425Y009848D01*
X010447Y009834D01*
X010466Y009816D01*
X010484Y009797D01*
X010498Y009775D01*
X010510Y009752D01*
X010518Y009727D01*
X010523Y009701D01*
X010525Y009675D01*
X010525Y001075D01*
X010523Y001049D01*
X010518Y001023D01*
X010510Y000998D01*
X010498Y000975D01*
X010484Y000953D01*
X010466Y000934D01*
X010447Y000916D01*
X010425Y000902D01*
X010402Y000890D01*
X010377Y000882D01*
X010351Y000877D01*
X010325Y000875D01*
X009925Y000875D01*
X009899Y000877D01*
X009873Y000882D01*
X009848Y000890D01*
X009825Y000902D01*
X009803Y000916D01*
X009784Y000934D01*
X009766Y000953D01*
X009752Y000975D01*
X009740Y000998D01*
X009732Y001023D01*
X009727Y001049D01*
X009725Y001075D01*
X009125Y002675D02*
X009125Y003075D01*
X009125Y003675D02*
X009125Y004075D01*
X009125Y004675D02*
X009125Y005075D01*
X009125Y005675D02*
X009125Y006075D01*
X009125Y006675D02*
X009125Y007075D01*
X009125Y007675D02*
X009125Y008075D01*
X009125Y008675D02*
X009125Y009075D01*
X009125Y009675D02*
X009125Y010375D01*
X006125Y010375D01*
X004725Y008145D02*
X001525Y008145D01*
X001502Y008143D01*
X001479Y008138D01*
X001457Y008129D01*
X001437Y008116D01*
X001419Y008101D01*
X001404Y008083D01*
X001391Y008063D01*
X001382Y008041D01*
X001377Y008018D01*
X001375Y007995D01*
X001375Y006755D01*
X001377Y006732D01*
X001382Y006709D01*
X001391Y006687D01*
X001404Y006667D01*
X001419Y006649D01*
X001437Y006634D01*
X001457Y006621D01*
X001479Y006612D01*
X001502Y006607D01*
X001525Y006605D01*
X004725Y006605D01*
X004748Y006607D01*
X004771Y006612D01*
X004793Y006621D01*
X004813Y006634D01*
X004831Y006649D01*
X004846Y006667D01*
X004859Y006687D01*
X004868Y006709D01*
X004873Y006732D01*
X004875Y006755D01*
X004875Y007175D01*
X004875Y007575D01*
X004875Y007995D01*
X004873Y008018D01*
X004868Y008041D01*
X004859Y008063D01*
X004846Y008083D01*
X004831Y008101D01*
X004813Y008116D01*
X004793Y008129D01*
X004771Y008138D01*
X004748Y008143D01*
X004725Y008145D01*
X004875Y007575D02*
X004848Y007573D01*
X004821Y007568D01*
X004795Y007558D01*
X004771Y007546D01*
X004749Y007530D01*
X004729Y007512D01*
X004712Y007490D01*
X004697Y007467D01*
X004687Y007442D01*
X004679Y007416D01*
X004675Y007389D01*
X004675Y007361D01*
X004679Y007334D01*
X004687Y007308D01*
X004697Y007283D01*
X004712Y007260D01*
X004729Y007238D01*
X004749Y007220D01*
X004771Y007204D01*
X004795Y007192D01*
X004821Y007182D01*
X004848Y007177D01*
X004875Y007175D01*
X004244Y005645D02*
X004006Y005645D01*
X003855Y005494D01*
X003855Y005484D02*
X003855Y005246D01*
X003996Y005105D01*
X004244Y005105D01*
X004395Y005256D01*
X004395Y005494D01*
X004244Y005645D01*
X003744Y005270D02*
X003506Y005270D01*
X003355Y005119D01*
X003355Y005109D02*
X003355Y004871D01*
X003496Y004730D01*
X003744Y004730D01*
X003895Y004881D01*
X003895Y005119D01*
X003744Y005270D01*
X003395Y005256D02*
X003395Y005494D01*
X003244Y005645D01*
X003006Y005645D01*
X002855Y005494D01*
X002855Y005484D02*
X002855Y005246D01*
X002996Y005105D01*
X003244Y005105D01*
X003395Y005256D01*
X001672Y003572D02*
X001674Y003639D01*
X001680Y003707D01*
X001690Y003774D01*
X001704Y003840D01*
X001721Y003905D01*
X001743Y003969D01*
X001768Y004032D01*
X001797Y004093D01*
X001829Y004152D01*
X001865Y004209D01*
X001904Y004264D01*
X001946Y004317D01*
X001991Y004367D01*
X002039Y004414D01*
X002090Y004459D01*
X002143Y004500D01*
X002199Y004539D01*
X002257Y004574D01*
X002317Y004605D01*
X002378Y004633D01*
X002441Y004657D01*
X002505Y004678D01*
X002571Y004694D01*
X002637Y004707D01*
X002704Y004716D01*
X002771Y004721D01*
X002839Y004722D01*
X002906Y004719D01*
X002973Y004712D01*
X003040Y004701D01*
X003106Y004686D01*
X003171Y004668D01*
X003235Y004645D01*
X003297Y004619D01*
X003358Y004590D01*
X003416Y004556D01*
X003473Y004520D01*
X003528Y004480D01*
X003580Y004437D01*
X003629Y004391D01*
X003676Y004342D01*
X003720Y004291D01*
X003760Y004237D01*
X003798Y004181D01*
X003832Y004122D01*
X003862Y004062D01*
X003889Y004000D01*
X003913Y003937D01*
X003932Y003872D01*
X003948Y003807D01*
X003960Y003740D01*
X003968Y003673D01*
X003972Y003606D01*
X003972Y003538D01*
X003968Y003471D01*
X003960Y003404D01*
X003948Y003337D01*
X003932Y003272D01*
X003913Y003207D01*
X003889Y003144D01*
X003862Y003082D01*
X003832Y003022D01*
X003798Y002963D01*
X003760Y002907D01*
X003720Y002853D01*
X003676Y002802D01*
X003629Y002753D01*
X003580Y002707D01*
X003528Y002664D01*
X003473Y002624D01*
X003416Y002588D01*
X003358Y002554D01*
X003297Y002525D01*
X003235Y002499D01*
X003171Y002476D01*
X003106Y002458D01*
X003040Y002443D01*
X002973Y002432D01*
X002906Y002425D01*
X002839Y002422D01*
X002771Y002423D01*
X002704Y002428D01*
X002637Y002437D01*
X002571Y002450D01*
X002505Y002466D01*
X002441Y002487D01*
X002378Y002511D01*
X002317Y002539D01*
X002257Y002570D01*
X002199Y002605D01*
X002143Y002644D01*
X002090Y002685D01*
X002039Y002730D01*
X001991Y002777D01*
X001946Y002827D01*
X001904Y002880D01*
X001865Y002935D01*
X001829Y002992D01*
X001797Y003051D01*
X001768Y003112D01*
X001743Y003175D01*
X001721Y003239D01*
X001704Y003304D01*
X001690Y003370D01*
X001680Y003437D01*
X001674Y003505D01*
X001672Y003572D01*
X012805Y004815D02*
X015445Y004815D01*
X015468Y004817D01*
X015491Y004822D01*
X015513Y004831D01*
X015533Y004844D01*
X015551Y004859D01*
X015566Y004877D01*
X015579Y004897D01*
X015588Y004919D01*
X015593Y004942D01*
X015595Y004965D01*
X015375Y003375D02*
X015875Y003375D01*
X016125Y003125D01*
X016125Y001625D01*
X015875Y001375D01*
X015375Y001375D01*
X015125Y001625D01*
X015125Y003125D01*
X015375Y003375D01*
X015125Y003125D02*
X014875Y003375D01*
X014375Y003375D01*
X014125Y003125D01*
X013875Y003375D01*
X013375Y003375D01*
X013125Y003125D01*
X013125Y001625D01*
X013375Y001375D01*
X013875Y001375D01*
X014125Y001625D01*
X014125Y003125D01*
X016125Y003125D02*
X016375Y003375D01*
X016875Y003375D01*
X017125Y003125D01*
X017125Y001625D01*
X016875Y001375D01*
X016375Y001375D01*
X016125Y001625D01*
X017125Y001625D02*
X017375Y001375D01*
X017875Y001375D01*
X018125Y001625D01*
X018125Y003125D01*
X018375Y003375D01*
X018875Y003375D01*
X019125Y003125D01*
X019125Y001625D01*
X018875Y001375D01*
X018375Y001375D01*
X018125Y001625D01*
X019125Y001625D02*
X019375Y001375D01*
X019875Y001375D01*
X020125Y001625D01*
X020125Y003125D01*
X020375Y003375D01*
X020875Y003375D01*
X021125Y003125D01*
X021125Y001625D01*
X020875Y001375D01*
X020375Y001375D01*
X020125Y001625D01*
X021125Y001625D02*
X021375Y001375D01*
X021875Y001375D01*
X022125Y001625D01*
X022125Y003125D01*
X022375Y003375D01*
X022875Y003375D01*
X023125Y003125D01*
X023125Y001625D01*
X022875Y001375D01*
X022375Y001375D01*
X022125Y001625D01*
X023125Y001625D02*
X023375Y001375D01*
X023875Y001375D01*
X024125Y001625D01*
X024125Y003125D01*
X024375Y003375D01*
X024875Y003375D01*
X025125Y003125D01*
X025125Y001625D01*
X024875Y001375D01*
X024375Y001375D01*
X024125Y001625D01*
X025125Y001625D02*
X025375Y001375D01*
X025875Y001375D01*
X026125Y001625D01*
X026125Y003125D01*
X026375Y003375D01*
X026875Y003375D01*
X027125Y003125D01*
X027125Y001625D01*
X026875Y001375D01*
X026375Y001375D01*
X026125Y001625D01*
X027125Y001625D02*
X027375Y001375D01*
X027875Y001375D01*
X028125Y001625D01*
X028125Y003125D01*
X027875Y003375D01*
X027375Y003375D01*
X027125Y003125D01*
X026125Y003125D02*
X025875Y003375D01*
X025375Y003375D01*
X025125Y003125D01*
X024125Y003125D02*
X023875Y003375D01*
X023375Y003375D01*
X023125Y003125D01*
X022125Y003125D02*
X021875Y003375D01*
X021375Y003375D01*
X021125Y003125D01*
X020125Y003125D02*
X019875Y003375D01*
X019375Y003375D01*
X019125Y003125D01*
X018125Y003125D02*
X017875Y003375D01*
X017375Y003375D01*
X017125Y003125D01*
X015125Y001625D02*
X014875Y001375D01*
X014375Y001375D01*
X014125Y001625D01*
X012805Y004815D02*
X012782Y004817D01*
X012759Y004822D01*
X012737Y004831D01*
X012717Y004844D01*
X012699Y004859D01*
X012684Y004877D01*
X012671Y004897D01*
X012662Y004919D01*
X012657Y004942D01*
X012655Y004965D01*
X012655Y009785D02*
X012657Y009808D01*
X012662Y009831D01*
X012671Y009853D01*
X012684Y009873D01*
X012699Y009891D01*
X012717Y009906D01*
X012737Y009919D01*
X012759Y009928D01*
X012782Y009933D01*
X012805Y009935D01*
X013625Y009935D01*
X014625Y009935D01*
X015445Y009935D01*
X015468Y009933D01*
X015491Y009928D01*
X015513Y009919D01*
X015533Y009906D01*
X015551Y009891D01*
X015566Y009873D01*
X015579Y009853D01*
X015588Y009831D01*
X015593Y009808D01*
X015595Y009785D01*
X014625Y009935D02*
X014623Y009891D01*
X014617Y009848D01*
X014608Y009806D01*
X014595Y009764D01*
X014578Y009724D01*
X014558Y009685D01*
X014535Y009648D01*
X014508Y009614D01*
X014479Y009581D01*
X014446Y009552D01*
X014412Y009525D01*
X014375Y009502D01*
X014336Y009482D01*
X014296Y009465D01*
X014254Y009452D01*
X014212Y009443D01*
X014169Y009437D01*
X014125Y009435D01*
X014081Y009437D01*
X014038Y009443D01*
X013996Y009452D01*
X013954Y009465D01*
X013914Y009482D01*
X013875Y009502D01*
X013838Y009525D01*
X013804Y009552D01*
X013771Y009581D01*
X013742Y009614D01*
X013715Y009648D01*
X013692Y009685D01*
X013672Y009724D01*
X013655Y009764D01*
X013642Y009806D01*
X013633Y009848D01*
X013627Y009891D01*
X013625Y009935D01*
X020050Y009363D02*
X020050Y008763D01*
X020052Y008746D01*
X020056Y008729D01*
X020063Y008713D01*
X020073Y008699D01*
X020086Y008686D01*
X020100Y008676D01*
X020116Y008669D01*
X020133Y008665D01*
X020150Y008663D01*
X021850Y008663D01*
X021867Y008665D01*
X021884Y008669D01*
X021900Y008676D01*
X021914Y008686D01*
X021927Y008699D01*
X021937Y008713D01*
X021944Y008729D01*
X021948Y008746D01*
X021950Y008763D01*
X021950Y009363D01*
X021948Y009380D01*
X021944Y009397D01*
X021937Y009413D01*
X021927Y009427D01*
X021914Y009440D01*
X021900Y009450D01*
X021884Y009457D01*
X021867Y009461D01*
X021850Y009463D01*
X020150Y009463D01*
X020133Y009461D01*
X020116Y009457D01*
X020100Y009450D01*
X020086Y009440D01*
X020073Y009427D01*
X020063Y009413D01*
X020056Y009397D01*
X020052Y009380D01*
X020050Y009363D01*
X028613Y007925D02*
X028613Y007325D01*
X028615Y007308D01*
X028619Y007291D01*
X028626Y007275D01*
X028636Y007261D01*
X028649Y007248D01*
X028663Y007238D01*
X028679Y007231D01*
X028696Y007227D01*
X028713Y007225D01*
X030413Y007225D01*
X030430Y007227D01*
X030447Y007231D01*
X030463Y007238D01*
X030477Y007248D01*
X030490Y007261D01*
X030500Y007275D01*
X030507Y007291D01*
X030511Y007308D01*
X030513Y007325D01*
X030513Y007925D01*
X030511Y007942D01*
X030507Y007959D01*
X030500Y007975D01*
X030490Y007989D01*
X030477Y008002D01*
X030463Y008012D01*
X030447Y008019D01*
X030430Y008023D01*
X030413Y008025D01*
X028713Y008025D01*
X028696Y008023D01*
X028679Y008019D01*
X028663Y008012D01*
X028649Y008002D01*
X028636Y007989D01*
X028626Y007975D01*
X028619Y007959D01*
X028615Y007942D01*
X028613Y007925D01*
X028996Y008605D02*
X029244Y008605D01*
X029395Y008756D01*
X029395Y008994D01*
X029244Y009145D01*
X029006Y009145D01*
X028855Y008994D01*
X028855Y008984D02*
X028855Y008746D01*
X028996Y008605D01*
X029855Y008746D02*
X029996Y008605D01*
X030244Y008605D01*
X030395Y008756D01*
X030395Y008994D01*
X030244Y009145D01*
X030006Y009145D01*
X029855Y008994D01*
X029855Y008984D02*
X029855Y008746D01*
X031855Y009225D02*
X031855Y005525D01*
X031857Y005502D01*
X031862Y005479D01*
X031871Y005457D01*
X031884Y005437D01*
X031899Y005419D01*
X031917Y005404D01*
X031937Y005391D01*
X031959Y005382D01*
X031982Y005377D01*
X032005Y005375D01*
X032425Y005375D01*
X032825Y005375D01*
X033245Y005375D01*
X033268Y005377D01*
X033291Y005382D01*
X033313Y005391D01*
X033333Y005404D01*
X033351Y005419D01*
X033366Y005437D01*
X033379Y005457D01*
X033388Y005479D01*
X033393Y005502D01*
X033395Y005525D01*
X033395Y009225D01*
X033393Y009248D01*
X033388Y009271D01*
X033379Y009293D01*
X033366Y009313D01*
X033351Y009331D01*
X033333Y009346D01*
X033313Y009359D01*
X033291Y009368D01*
X033268Y009373D01*
X033245Y009375D01*
X032005Y009375D01*
X031982Y009373D01*
X031959Y009368D01*
X031937Y009359D01*
X031917Y009346D01*
X031899Y009331D01*
X031884Y009313D01*
X031871Y009293D01*
X031862Y009271D01*
X031857Y009248D01*
X031855Y009225D01*
X034663Y007925D02*
X034663Y007325D01*
X034665Y007308D01*
X034669Y007291D01*
X034676Y007275D01*
X034686Y007261D01*
X034699Y007248D01*
X034713Y007238D01*
X034729Y007231D01*
X034746Y007227D01*
X034763Y007225D01*
X035863Y007225D01*
X035863Y007275D02*
X034763Y007275D01*
X034746Y007273D01*
X034729Y007269D01*
X034713Y007262D01*
X034699Y007252D01*
X034686Y007239D01*
X034676Y007225D01*
X034669Y007209D01*
X034665Y007192D01*
X034663Y007175D01*
X034663Y006575D01*
X034665Y006558D01*
X034669Y006541D01*
X034676Y006525D01*
X034686Y006511D01*
X034699Y006498D01*
X034713Y006488D01*
X034729Y006481D01*
X034746Y006477D01*
X034763Y006475D01*
X035863Y006475D01*
X035880Y006477D01*
X035897Y006481D01*
X035913Y006488D01*
X035927Y006498D01*
X035940Y006511D01*
X035950Y006525D01*
X035957Y006541D01*
X035961Y006558D01*
X035963Y006575D01*
X035963Y007175D01*
X035961Y007192D01*
X035957Y007209D01*
X035950Y007225D01*
X035940Y007239D01*
X035927Y007252D01*
X035913Y007262D01*
X035897Y007269D01*
X035880Y007273D01*
X035863Y007275D01*
X035863Y007225D02*
X035880Y007227D01*
X035897Y007231D01*
X035913Y007238D01*
X035927Y007248D01*
X035940Y007261D01*
X035950Y007275D01*
X035957Y007291D01*
X035961Y007308D01*
X035963Y007325D01*
X035963Y007925D01*
X035961Y007942D01*
X035957Y007959D01*
X035950Y007975D01*
X035940Y007989D01*
X035927Y008002D01*
X035913Y008012D01*
X035897Y008019D01*
X035880Y008023D01*
X035863Y008025D01*
X034763Y008025D01*
X034746Y008023D01*
X034729Y008019D01*
X034713Y008012D01*
X034699Y008002D01*
X034686Y007989D01*
X034676Y007975D01*
X034669Y007959D01*
X034665Y007942D01*
X034663Y007925D01*
X032825Y005375D02*
X032823Y005402D01*
X032818Y005429D01*
X032808Y005455D01*
X032796Y005479D01*
X032780Y005501D01*
X032762Y005521D01*
X032740Y005538D01*
X032717Y005553D01*
X032692Y005563D01*
X032666Y005571D01*
X032639Y005575D01*
X032611Y005575D01*
X032584Y005571D01*
X032558Y005563D01*
X032533Y005553D01*
X032510Y005538D01*
X032488Y005521D01*
X032470Y005501D01*
X032454Y005479D01*
X032442Y005455D01*
X032432Y005429D01*
X032427Y005402D01*
X032425Y005375D01*
X030513Y005825D02*
X030513Y006425D01*
X030511Y006442D01*
X030507Y006459D01*
X030500Y006475D01*
X030490Y006489D01*
X030477Y006502D01*
X030463Y006512D01*
X030447Y006519D01*
X030430Y006523D01*
X030413Y006525D01*
X028713Y006525D01*
X028696Y006523D01*
X028679Y006519D01*
X028663Y006512D01*
X028649Y006502D01*
X028636Y006489D01*
X028626Y006475D01*
X028619Y006459D01*
X028615Y006442D01*
X028613Y006425D01*
X028613Y005825D01*
X028615Y005808D01*
X028619Y005791D01*
X028626Y005775D01*
X028636Y005761D01*
X028649Y005748D01*
X028663Y005738D01*
X028679Y005731D01*
X028696Y005727D01*
X028713Y005725D01*
X030413Y005725D01*
X030430Y005727D01*
X030447Y005731D01*
X030463Y005738D01*
X030477Y005748D01*
X030490Y005761D01*
X030500Y005775D01*
X030507Y005791D01*
X030511Y005808D01*
X030513Y005825D01*
X030375Y003375D02*
X030125Y003125D01*
X030125Y001625D01*
X029875Y001375D01*
X029375Y001375D01*
X029125Y001625D01*
X029125Y003125D01*
X028875Y003375D01*
X028375Y003375D01*
X028125Y003125D01*
X029125Y003125D02*
X029375Y003375D01*
X029875Y003375D01*
X030125Y003125D01*
X030375Y003375D02*
X030875Y003375D01*
X031125Y003125D01*
X031125Y001625D01*
X030875Y001375D01*
X030375Y001375D01*
X030125Y001625D01*
X029125Y001625D02*
X028875Y001375D01*
X028375Y001375D01*
X028125Y001625D01*
X031125Y001625D02*
X031375Y001375D01*
X031875Y001375D01*
X032125Y001625D01*
X032125Y003125D01*
X031875Y003375D01*
X031375Y003375D01*
X031125Y003125D01*
X032125Y003125D02*
X032375Y003375D01*
X032875Y003375D01*
X033125Y003125D01*
X033125Y001625D01*
X032875Y001375D01*
X032375Y001375D01*
X032125Y001625D01*
X033278Y003572D02*
X033280Y003639D01*
X033286Y003707D01*
X033296Y003774D01*
X033310Y003840D01*
X033327Y003905D01*
X033349Y003969D01*
X033374Y004032D01*
X033403Y004093D01*
X033435Y004152D01*
X033471Y004209D01*
X033510Y004264D01*
X033552Y004317D01*
X033597Y004367D01*
X033645Y004414D01*
X033696Y004459D01*
X033749Y004500D01*
X033805Y004539D01*
X033863Y004574D01*
X033923Y004605D01*
X033984Y004633D01*
X034047Y004657D01*
X034111Y004678D01*
X034177Y004694D01*
X034243Y004707D01*
X034310Y004716D01*
X034377Y004721D01*
X034445Y004722D01*
X034512Y004719D01*
X034579Y004712D01*
X034646Y004701D01*
X034712Y004686D01*
X034777Y004668D01*
X034841Y004645D01*
X034903Y004619D01*
X034964Y004590D01*
X035022Y004556D01*
X035079Y004520D01*
X035134Y004480D01*
X035186Y004437D01*
X035235Y004391D01*
X035282Y004342D01*
X035326Y004291D01*
X035366Y004237D01*
X035404Y004181D01*
X035438Y004122D01*
X035468Y004062D01*
X035495Y004000D01*
X035519Y003937D01*
X035538Y003872D01*
X035554Y003807D01*
X035566Y003740D01*
X035574Y003673D01*
X035578Y003606D01*
X035578Y003538D01*
X035574Y003471D01*
X035566Y003404D01*
X035554Y003337D01*
X035538Y003272D01*
X035519Y003207D01*
X035495Y003144D01*
X035468Y003082D01*
X035438Y003022D01*
X035404Y002963D01*
X035366Y002907D01*
X035326Y002853D01*
X035282Y002802D01*
X035235Y002753D01*
X035186Y002707D01*
X035134Y002664D01*
X035079Y002624D01*
X035022Y002588D01*
X034964Y002554D01*
X034903Y002525D01*
X034841Y002499D01*
X034777Y002476D01*
X034712Y002458D01*
X034646Y002443D01*
X034579Y002432D01*
X034512Y002425D01*
X034445Y002422D01*
X034377Y002423D01*
X034310Y002428D01*
X034243Y002437D01*
X034177Y002450D01*
X034111Y002466D01*
X034047Y002487D01*
X033984Y002511D01*
X033923Y002539D01*
X033863Y002570D01*
X033805Y002605D01*
X033749Y002644D01*
X033696Y002685D01*
X033645Y002730D01*
X033597Y002777D01*
X033552Y002827D01*
X033510Y002880D01*
X033471Y002935D01*
X033435Y002992D01*
X033403Y003051D01*
X033374Y003112D01*
X033349Y003175D01*
X033327Y003239D01*
X033310Y003304D01*
X033296Y003370D01*
X033286Y003437D01*
X033280Y003505D01*
X033278Y003572D01*
X032525Y013105D02*
X035725Y013105D01*
X035748Y013107D01*
X035771Y013112D01*
X035793Y013121D01*
X035813Y013134D01*
X035831Y013149D01*
X035846Y013167D01*
X035859Y013187D01*
X035868Y013209D01*
X035873Y013232D01*
X035875Y013255D01*
X035875Y014495D01*
X035895Y014494D02*
X035895Y014256D01*
X035744Y014105D01*
X035496Y014105D01*
X035355Y014246D01*
X035355Y014484D01*
X035355Y014494D02*
X035506Y014645D01*
X035744Y014645D01*
X035895Y014494D01*
X035875Y014495D02*
X035873Y014518D01*
X035868Y014541D01*
X035859Y014563D01*
X035846Y014583D01*
X035831Y014601D01*
X035813Y014616D01*
X035793Y014629D01*
X035771Y014638D01*
X035748Y014643D01*
X035725Y014645D01*
X032525Y014645D01*
X032502Y014643D01*
X032479Y014638D01*
X032457Y014629D01*
X032437Y014616D01*
X032419Y014601D01*
X032404Y014583D01*
X032391Y014563D01*
X032382Y014541D01*
X032377Y014518D01*
X032375Y014495D01*
X032375Y014075D01*
X032375Y013675D01*
X032375Y013255D01*
X032377Y013232D01*
X032382Y013209D01*
X032391Y013187D01*
X032404Y013167D01*
X032419Y013149D01*
X032437Y013134D01*
X032457Y013121D01*
X032479Y013112D01*
X032502Y013107D01*
X032525Y013105D01*
X032996Y013730D02*
X033244Y013730D01*
X033395Y013881D01*
X033395Y014119D01*
X033244Y014270D01*
X033006Y014270D01*
X032855Y014119D01*
X032855Y014109D02*
X032855Y013871D01*
X032996Y013730D01*
X033496Y014105D02*
X033744Y014105D01*
X033895Y014256D01*
X033895Y014494D01*
X033744Y014645D01*
X033506Y014645D01*
X033355Y014494D01*
X033355Y014484D02*
X033355Y014246D01*
X033496Y014105D01*
X033855Y014109D02*
X033855Y013871D01*
X033996Y013730D01*
X034244Y013730D01*
X034395Y013881D01*
X034395Y014119D01*
X034244Y014270D01*
X034006Y014270D01*
X033855Y014119D01*
X034355Y014246D02*
X034355Y014484D01*
X034355Y014494D02*
X034506Y014645D01*
X034744Y014645D01*
X034895Y014494D01*
X034895Y014256D01*
X034744Y014105D01*
X034496Y014105D01*
X034355Y014246D01*
X034855Y014119D02*
X035006Y014270D01*
X035244Y014270D01*
X035395Y014119D01*
X035395Y013881D01*
X035244Y013730D01*
X034996Y013730D01*
X034855Y013871D01*
X034855Y014109D01*
X032375Y014075D02*
X032402Y014073D01*
X032429Y014068D01*
X032455Y014058D01*
X032479Y014046D01*
X032501Y014030D01*
X032521Y014012D01*
X032538Y013990D01*
X032553Y013967D01*
X032563Y013942D01*
X032571Y013916D01*
X032575Y013889D01*
X032575Y013861D01*
X032571Y013834D01*
X032563Y013808D01*
X032553Y013783D01*
X032538Y013760D01*
X032521Y013738D01*
X032501Y013720D01*
X032479Y013704D01*
X032455Y013692D01*
X032429Y013682D01*
X032402Y013677D01*
X032375Y013675D01*
X033278Y020178D02*
X033280Y020245D01*
X033286Y020313D01*
X033296Y020380D01*
X033310Y020446D01*
X033327Y020511D01*
X033349Y020575D01*
X033374Y020638D01*
X033403Y020699D01*
X033435Y020758D01*
X033471Y020815D01*
X033510Y020870D01*
X033552Y020923D01*
X033597Y020973D01*
X033645Y021020D01*
X033696Y021065D01*
X033749Y021106D01*
X033805Y021145D01*
X033863Y021180D01*
X033923Y021211D01*
X033984Y021239D01*
X034047Y021263D01*
X034111Y021284D01*
X034177Y021300D01*
X034243Y021313D01*
X034310Y021322D01*
X034377Y021327D01*
X034445Y021328D01*
X034512Y021325D01*
X034579Y021318D01*
X034646Y021307D01*
X034712Y021292D01*
X034777Y021274D01*
X034841Y021251D01*
X034903Y021225D01*
X034964Y021196D01*
X035022Y021162D01*
X035079Y021126D01*
X035134Y021086D01*
X035186Y021043D01*
X035235Y020997D01*
X035282Y020948D01*
X035326Y020897D01*
X035366Y020843D01*
X035404Y020787D01*
X035438Y020728D01*
X035468Y020668D01*
X035495Y020606D01*
X035519Y020543D01*
X035538Y020478D01*
X035554Y020413D01*
X035566Y020346D01*
X035574Y020279D01*
X035578Y020212D01*
X035578Y020144D01*
X035574Y020077D01*
X035566Y020010D01*
X035554Y019943D01*
X035538Y019878D01*
X035519Y019813D01*
X035495Y019750D01*
X035468Y019688D01*
X035438Y019628D01*
X035404Y019569D01*
X035366Y019513D01*
X035326Y019459D01*
X035282Y019408D01*
X035235Y019359D01*
X035186Y019313D01*
X035134Y019270D01*
X035079Y019230D01*
X035022Y019194D01*
X034964Y019160D01*
X034903Y019131D01*
X034841Y019105D01*
X034777Y019082D01*
X034712Y019064D01*
X034646Y019049D01*
X034579Y019038D01*
X034512Y019031D01*
X034445Y019028D01*
X034377Y019029D01*
X034310Y019034D01*
X034243Y019043D01*
X034177Y019056D01*
X034111Y019072D01*
X034047Y019093D01*
X033984Y019117D01*
X033923Y019145D01*
X033863Y019176D01*
X033805Y019211D01*
X033749Y019250D01*
X033696Y019291D01*
X033645Y019336D01*
X033597Y019383D01*
X033552Y019433D01*
X033510Y019486D01*
X033471Y019541D01*
X033435Y019598D01*
X033403Y019657D01*
X033374Y019718D01*
X033349Y019781D01*
X033327Y019845D01*
X033310Y019910D01*
X033296Y019976D01*
X033286Y020043D01*
X033280Y020111D01*
X033278Y020178D01*
D17*
X033837Y020178D02*
X033839Y020226D01*
X033845Y020274D01*
X033855Y020321D01*
X033868Y020367D01*
X033886Y020412D01*
X033906Y020456D01*
X033931Y020498D01*
X033959Y020537D01*
X033989Y020574D01*
X034023Y020608D01*
X034060Y020640D01*
X034098Y020669D01*
X034139Y020694D01*
X034182Y020716D01*
X034227Y020734D01*
X034273Y020748D01*
X034320Y020759D01*
X034368Y020766D01*
X034416Y020769D01*
X034464Y020768D01*
X034512Y020763D01*
X034560Y020754D01*
X034606Y020742D01*
X034651Y020725D01*
X034695Y020705D01*
X034737Y020682D01*
X034777Y020655D01*
X034815Y020625D01*
X034850Y020592D01*
X034882Y020556D01*
X034912Y020518D01*
X034938Y020477D01*
X034960Y020434D01*
X034980Y020390D01*
X034995Y020345D01*
X035007Y020298D01*
X035015Y020250D01*
X035019Y020202D01*
X035019Y020154D01*
X035015Y020106D01*
X035007Y020058D01*
X034995Y020011D01*
X034980Y019966D01*
X034960Y019922D01*
X034938Y019879D01*
X034912Y019838D01*
X034882Y019800D01*
X034850Y019764D01*
X034815Y019731D01*
X034777Y019701D01*
X034737Y019674D01*
X034695Y019651D01*
X034651Y019631D01*
X034606Y019614D01*
X034560Y019602D01*
X034512Y019593D01*
X034464Y019588D01*
X034416Y019587D01*
X034368Y019590D01*
X034320Y019597D01*
X034273Y019608D01*
X034227Y019622D01*
X034182Y019640D01*
X034139Y019662D01*
X034098Y019687D01*
X034060Y019716D01*
X034023Y019748D01*
X033989Y019782D01*
X033959Y019819D01*
X033931Y019858D01*
X033906Y019900D01*
X033886Y019944D01*
X033868Y019989D01*
X033855Y020035D01*
X033845Y020082D01*
X033839Y020130D01*
X033837Y020178D01*
X010487Y021315D02*
X010487Y018560D01*
X010487Y017378D02*
X010487Y016985D01*
X005763Y016985D01*
X005763Y017378D01*
X005763Y018560D02*
X005763Y021315D01*
X010487Y021315D01*
X002231Y020178D02*
X002233Y020226D01*
X002239Y020274D01*
X002249Y020321D01*
X002262Y020367D01*
X002280Y020412D01*
X002300Y020456D01*
X002325Y020498D01*
X002353Y020537D01*
X002383Y020574D01*
X002417Y020608D01*
X002454Y020640D01*
X002492Y020669D01*
X002533Y020694D01*
X002576Y020716D01*
X002621Y020734D01*
X002667Y020748D01*
X002714Y020759D01*
X002762Y020766D01*
X002810Y020769D01*
X002858Y020768D01*
X002906Y020763D01*
X002954Y020754D01*
X003000Y020742D01*
X003045Y020725D01*
X003089Y020705D01*
X003131Y020682D01*
X003171Y020655D01*
X003209Y020625D01*
X003244Y020592D01*
X003276Y020556D01*
X003306Y020518D01*
X003332Y020477D01*
X003354Y020434D01*
X003374Y020390D01*
X003389Y020345D01*
X003401Y020298D01*
X003409Y020250D01*
X003413Y020202D01*
X003413Y020154D01*
X003409Y020106D01*
X003401Y020058D01*
X003389Y020011D01*
X003374Y019966D01*
X003354Y019922D01*
X003332Y019879D01*
X003306Y019838D01*
X003276Y019800D01*
X003244Y019764D01*
X003209Y019731D01*
X003171Y019701D01*
X003131Y019674D01*
X003089Y019651D01*
X003045Y019631D01*
X003000Y019614D01*
X002954Y019602D01*
X002906Y019593D01*
X002858Y019588D01*
X002810Y019587D01*
X002762Y019590D01*
X002714Y019597D01*
X002667Y019608D01*
X002621Y019622D01*
X002576Y019640D01*
X002533Y019662D01*
X002492Y019687D01*
X002454Y019716D01*
X002417Y019748D01*
X002383Y019782D01*
X002353Y019819D01*
X002325Y019858D01*
X002300Y019900D01*
X002280Y019944D01*
X002262Y019989D01*
X002249Y020035D01*
X002239Y020082D01*
X002233Y020130D01*
X002231Y020178D01*
X002231Y003572D02*
X002233Y003620D01*
X002239Y003668D01*
X002249Y003715D01*
X002262Y003761D01*
X002280Y003806D01*
X002300Y003850D01*
X002325Y003892D01*
X002353Y003931D01*
X002383Y003968D01*
X002417Y004002D01*
X002454Y004034D01*
X002492Y004063D01*
X002533Y004088D01*
X002576Y004110D01*
X002621Y004128D01*
X002667Y004142D01*
X002714Y004153D01*
X002762Y004160D01*
X002810Y004163D01*
X002858Y004162D01*
X002906Y004157D01*
X002954Y004148D01*
X003000Y004136D01*
X003045Y004119D01*
X003089Y004099D01*
X003131Y004076D01*
X003171Y004049D01*
X003209Y004019D01*
X003244Y003986D01*
X003276Y003950D01*
X003306Y003912D01*
X003332Y003871D01*
X003354Y003828D01*
X003374Y003784D01*
X003389Y003739D01*
X003401Y003692D01*
X003409Y003644D01*
X003413Y003596D01*
X003413Y003548D01*
X003409Y003500D01*
X003401Y003452D01*
X003389Y003405D01*
X003374Y003360D01*
X003354Y003316D01*
X003332Y003273D01*
X003306Y003232D01*
X003276Y003194D01*
X003244Y003158D01*
X003209Y003125D01*
X003171Y003095D01*
X003131Y003068D01*
X003089Y003045D01*
X003045Y003025D01*
X003000Y003008D01*
X002954Y002996D01*
X002906Y002987D01*
X002858Y002982D01*
X002810Y002981D01*
X002762Y002984D01*
X002714Y002991D01*
X002667Y003002D01*
X002621Y003016D01*
X002576Y003034D01*
X002533Y003056D01*
X002492Y003081D01*
X002454Y003110D01*
X002417Y003142D01*
X002383Y003176D01*
X002353Y003213D01*
X002325Y003252D01*
X002300Y003294D01*
X002280Y003338D01*
X002262Y003383D01*
X002249Y003429D01*
X002239Y003476D01*
X002233Y003524D01*
X002231Y003572D01*
X033837Y003572D02*
X033839Y003620D01*
X033845Y003668D01*
X033855Y003715D01*
X033868Y003761D01*
X033886Y003806D01*
X033906Y003850D01*
X033931Y003892D01*
X033959Y003931D01*
X033989Y003968D01*
X034023Y004002D01*
X034060Y004034D01*
X034098Y004063D01*
X034139Y004088D01*
X034182Y004110D01*
X034227Y004128D01*
X034273Y004142D01*
X034320Y004153D01*
X034368Y004160D01*
X034416Y004163D01*
X034464Y004162D01*
X034512Y004157D01*
X034560Y004148D01*
X034606Y004136D01*
X034651Y004119D01*
X034695Y004099D01*
X034737Y004076D01*
X034777Y004049D01*
X034815Y004019D01*
X034850Y003986D01*
X034882Y003950D01*
X034912Y003912D01*
X034938Y003871D01*
X034960Y003828D01*
X034980Y003784D01*
X034995Y003739D01*
X035007Y003692D01*
X035015Y003644D01*
X035019Y003596D01*
X035019Y003548D01*
X035015Y003500D01*
X035007Y003452D01*
X034995Y003405D01*
X034980Y003360D01*
X034960Y003316D01*
X034938Y003273D01*
X034912Y003232D01*
X034882Y003194D01*
X034850Y003158D01*
X034815Y003125D01*
X034777Y003095D01*
X034737Y003068D01*
X034695Y003045D01*
X034651Y003025D01*
X034606Y003008D01*
X034560Y002996D01*
X034512Y002987D01*
X034464Y002982D01*
X034416Y002981D01*
X034368Y002984D01*
X034320Y002991D01*
X034273Y003002D01*
X034227Y003016D01*
X034182Y003034D01*
X034139Y003056D01*
X034098Y003081D01*
X034060Y003110D01*
X034023Y003142D01*
X033989Y003176D01*
X033959Y003213D01*
X033931Y003252D01*
X033906Y003294D01*
X033886Y003338D01*
X033868Y003383D01*
X033855Y003429D01*
X033845Y003476D01*
X033839Y003524D01*
X033837Y003572D01*
D18*
X032773Y021816D03*
X032477Y021816D03*
X011773Y021934D03*
X011477Y021934D03*
D19*
X011625Y021934D03*
X032625Y021816D03*
M02*
