G75*
%MOIN*%
%OFA0B0*%
%FSLAX24Y24*%
%IPPOS*%
%LPD*%
%AMOC8*
5,1,8,0,0,1.08239X$1,22.5*
%
%ADD10C,0.0000*%
D10*
X005755Y001046D02*
X031560Y001046D01*
X036319Y005748D02*
X036319Y018019D01*
X036316Y018156D01*
X036309Y018293D01*
X036298Y018429D01*
X036284Y018566D01*
X036265Y018701D01*
X036242Y018836D01*
X036216Y018971D01*
X036185Y019104D01*
X036151Y019237D01*
X036113Y019369D01*
X036071Y019499D01*
X036025Y019628D01*
X035975Y019756D01*
X035922Y019882D01*
X035865Y020007D01*
X035805Y020130D01*
X035741Y020251D01*
X035673Y020370D01*
X035602Y020487D01*
X035528Y020602D01*
X035450Y020715D01*
X035370Y020826D01*
X035286Y020934D01*
X035198Y021040D01*
X035108Y021143D01*
X035015Y021243D01*
X034919Y021341D01*
X034820Y021436D01*
X034718Y021528D01*
X034614Y021617D01*
X034507Y021703D01*
X034398Y021785D01*
X034287Y021865D01*
X034173Y021941D01*
X034057Y022014D01*
X033939Y022083D01*
X033819Y022149D01*
X033697Y022212D01*
X033573Y022271D01*
X033448Y022326D01*
X033321Y022378D01*
X033193Y022426D01*
X033063Y022470D01*
X032932Y022510D01*
X032800Y022547D01*
X032667Y022580D01*
X032533Y022608D01*
X032398Y022633D01*
X032263Y022654D01*
X032127Y022671D01*
X031991Y022685D01*
X031854Y022694D01*
X031717Y022699D01*
X031580Y022700D01*
X005623Y022700D01*
X005920Y020922D02*
X005922Y020952D01*
X005928Y020982D01*
X005937Y021011D01*
X005950Y021038D01*
X005967Y021063D01*
X005986Y021086D01*
X006009Y021107D01*
X006034Y021124D01*
X006060Y021138D01*
X006089Y021148D01*
X006118Y021155D01*
X006148Y021158D01*
X006179Y021157D01*
X006209Y021152D01*
X006238Y021143D01*
X006265Y021131D01*
X006291Y021116D01*
X006315Y021097D01*
X006336Y021075D01*
X006354Y021051D01*
X006369Y021024D01*
X006380Y020996D01*
X006388Y020967D01*
X006392Y020937D01*
X006392Y020907D01*
X006388Y020877D01*
X006380Y020848D01*
X006369Y020820D01*
X006354Y020793D01*
X006336Y020769D01*
X006315Y020747D01*
X006291Y020728D01*
X006265Y020713D01*
X006238Y020701D01*
X006209Y020692D01*
X006179Y020687D01*
X006148Y020686D01*
X006118Y020689D01*
X006089Y020696D01*
X006060Y020706D01*
X006034Y020720D01*
X006009Y020737D01*
X005986Y020758D01*
X005967Y020781D01*
X005950Y020806D01*
X005937Y020833D01*
X005928Y020862D01*
X005922Y020892D01*
X005920Y020922D01*
X005920Y019938D02*
X005922Y019968D01*
X005928Y019998D01*
X005937Y020027D01*
X005950Y020054D01*
X005967Y020079D01*
X005986Y020102D01*
X006009Y020123D01*
X006034Y020140D01*
X006060Y020154D01*
X006089Y020164D01*
X006118Y020171D01*
X006148Y020174D01*
X006179Y020173D01*
X006209Y020168D01*
X006238Y020159D01*
X006265Y020147D01*
X006291Y020132D01*
X006315Y020113D01*
X006336Y020091D01*
X006354Y020067D01*
X006369Y020040D01*
X006380Y020012D01*
X006388Y019983D01*
X006392Y019953D01*
X006392Y019923D01*
X006388Y019893D01*
X006380Y019864D01*
X006369Y019836D01*
X006354Y019809D01*
X006336Y019785D01*
X006315Y019763D01*
X006291Y019744D01*
X006265Y019729D01*
X006238Y019717D01*
X006209Y019708D01*
X006179Y019703D01*
X006148Y019702D01*
X006118Y019705D01*
X006089Y019712D01*
X006060Y019722D01*
X006034Y019736D01*
X006009Y019753D01*
X005986Y019774D01*
X005967Y019797D01*
X005950Y019822D01*
X005937Y019849D01*
X005928Y019878D01*
X005922Y019908D01*
X005920Y019938D01*
X005622Y022700D02*
X005487Y022699D01*
X005353Y022695D01*
X005218Y022687D01*
X005084Y022675D01*
X004950Y022659D01*
X004816Y022640D01*
X004683Y022616D01*
X004551Y022589D01*
X004420Y022557D01*
X004290Y022522D01*
X004161Y022483D01*
X004033Y022441D01*
X003906Y022394D01*
X003781Y022344D01*
X003657Y022291D01*
X003535Y022233D01*
X003415Y022173D01*
X003296Y022109D01*
X003179Y022041D01*
X003065Y021970D01*
X002952Y021896D01*
X002842Y021818D01*
X002733Y021737D01*
X002628Y021654D01*
X002525Y021567D01*
X002424Y021477D01*
X002326Y021384D01*
X002231Y021289D01*
X002138Y021190D01*
X002049Y021090D01*
X001962Y020986D01*
X001879Y020880D01*
X001798Y020772D01*
X001721Y020661D01*
X001647Y020548D01*
X001577Y020434D01*
X001509Y020317D01*
X001446Y020198D01*
X001385Y020077D01*
X001328Y019955D01*
X001275Y019831D01*
X001226Y019705D01*
X001180Y019579D01*
X001137Y019451D01*
X001099Y019321D01*
X001064Y019191D01*
X001033Y019060D01*
X001006Y018928D01*
X000983Y018795D01*
X000964Y018661D01*
X000948Y018527D01*
X000937Y018393D01*
X000929Y018258D01*
X000925Y018123D01*
X000926Y018123D02*
X000926Y005692D01*
X000930Y005557D01*
X000939Y005422D01*
X000951Y005287D01*
X000967Y005153D01*
X000987Y005019D01*
X001011Y004886D01*
X001038Y004754D01*
X001070Y004622D01*
X001105Y004491D01*
X001144Y004362D01*
X001186Y004233D01*
X001232Y004106D01*
X001282Y003980D01*
X001335Y003856D01*
X001392Y003733D01*
X001452Y003612D01*
X001516Y003492D01*
X001583Y003375D01*
X001654Y003259D01*
X001727Y003146D01*
X001804Y003035D01*
X001884Y002926D01*
X001968Y002819D01*
X002054Y002714D01*
X002143Y002613D01*
X002235Y002513D01*
X002330Y002417D01*
X002427Y002323D01*
X002527Y002232D01*
X002630Y002144D01*
X002735Y002059D01*
X002843Y001977D01*
X002953Y001898D01*
X003065Y001822D01*
X003179Y001749D01*
X003295Y001680D01*
X003413Y001614D01*
X003533Y001552D01*
X003655Y001493D01*
X003778Y001437D01*
X003903Y001385D01*
X004030Y001336D01*
X004157Y001292D01*
X004286Y001250D01*
X004416Y001213D01*
X004547Y001179D01*
X004679Y001149D01*
X004812Y001123D01*
X004945Y001101D01*
X005079Y001082D01*
X005214Y001067D01*
X005349Y001056D01*
X005484Y001049D01*
X005619Y001046D01*
X005755Y001047D01*
X014512Y014052D02*
X014514Y014088D01*
X014520Y014123D01*
X014529Y014157D01*
X014543Y014191D01*
X014559Y014222D01*
X014579Y014252D01*
X014602Y014279D01*
X014628Y014304D01*
X014657Y014325D01*
X014687Y014344D01*
X014720Y014359D01*
X014754Y014370D01*
X014789Y014378D01*
X014824Y014382D01*
X014860Y014382D01*
X014895Y014378D01*
X014930Y014370D01*
X014964Y014359D01*
X014997Y014344D01*
X015027Y014325D01*
X015056Y014304D01*
X015082Y014279D01*
X015105Y014252D01*
X015125Y014222D01*
X015141Y014191D01*
X015155Y014157D01*
X015164Y014123D01*
X015170Y014088D01*
X015172Y014052D01*
X015170Y014016D01*
X015164Y013981D01*
X015155Y013947D01*
X015141Y013913D01*
X015125Y013882D01*
X015105Y013852D01*
X015082Y013825D01*
X015056Y013800D01*
X015027Y013779D01*
X014997Y013760D01*
X014964Y013745D01*
X014930Y013734D01*
X014895Y013726D01*
X014860Y013722D01*
X014824Y013722D01*
X014789Y013726D01*
X014754Y013734D01*
X014720Y013745D01*
X014687Y013760D01*
X014657Y013779D01*
X014628Y013800D01*
X014602Y013825D01*
X014579Y013852D01*
X014559Y013882D01*
X014543Y013913D01*
X014529Y013947D01*
X014520Y013981D01*
X014514Y014016D01*
X014512Y014052D01*
X007889Y017969D02*
X007891Y017999D01*
X007897Y018029D01*
X007906Y018058D01*
X007919Y018085D01*
X007936Y018110D01*
X007955Y018133D01*
X007978Y018154D01*
X008003Y018171D01*
X008029Y018185D01*
X008058Y018195D01*
X008087Y018202D01*
X008117Y018205D01*
X008148Y018204D01*
X008178Y018199D01*
X008207Y018190D01*
X008234Y018178D01*
X008260Y018163D01*
X008284Y018144D01*
X008305Y018122D01*
X008323Y018098D01*
X008338Y018071D01*
X008349Y018043D01*
X008357Y018014D01*
X008361Y017984D01*
X008361Y017954D01*
X008357Y017924D01*
X008349Y017895D01*
X008338Y017867D01*
X008323Y017840D01*
X008305Y017816D01*
X008284Y017794D01*
X008260Y017775D01*
X008234Y017760D01*
X008207Y017748D01*
X008178Y017739D01*
X008148Y017734D01*
X008117Y017733D01*
X008087Y017736D01*
X008058Y017743D01*
X008029Y017753D01*
X008003Y017767D01*
X007978Y017784D01*
X007955Y017805D01*
X007936Y017828D01*
X007919Y017853D01*
X007906Y017880D01*
X007897Y017909D01*
X007891Y017939D01*
X007889Y017969D01*
X009858Y019938D02*
X009860Y019968D01*
X009866Y019998D01*
X009875Y020027D01*
X009888Y020054D01*
X009905Y020079D01*
X009924Y020102D01*
X009947Y020123D01*
X009972Y020140D01*
X009998Y020154D01*
X010027Y020164D01*
X010056Y020171D01*
X010086Y020174D01*
X010117Y020173D01*
X010147Y020168D01*
X010176Y020159D01*
X010203Y020147D01*
X010229Y020132D01*
X010253Y020113D01*
X010274Y020091D01*
X010292Y020067D01*
X010307Y020040D01*
X010318Y020012D01*
X010326Y019983D01*
X010330Y019953D01*
X010330Y019923D01*
X010326Y019893D01*
X010318Y019864D01*
X010307Y019836D01*
X010292Y019809D01*
X010274Y019785D01*
X010253Y019763D01*
X010229Y019744D01*
X010203Y019729D01*
X010176Y019717D01*
X010147Y019708D01*
X010117Y019703D01*
X010086Y019702D01*
X010056Y019705D01*
X010027Y019712D01*
X009998Y019722D01*
X009972Y019736D01*
X009947Y019753D01*
X009924Y019774D01*
X009905Y019797D01*
X009888Y019822D01*
X009875Y019849D01*
X009866Y019878D01*
X009860Y019908D01*
X009858Y019938D01*
X009858Y020922D02*
X009860Y020952D01*
X009866Y020982D01*
X009875Y021011D01*
X009888Y021038D01*
X009905Y021063D01*
X009924Y021086D01*
X009947Y021107D01*
X009972Y021124D01*
X009998Y021138D01*
X010027Y021148D01*
X010056Y021155D01*
X010086Y021158D01*
X010117Y021157D01*
X010147Y021152D01*
X010176Y021143D01*
X010203Y021131D01*
X010229Y021116D01*
X010253Y021097D01*
X010274Y021075D01*
X010292Y021051D01*
X010307Y021024D01*
X010318Y020996D01*
X010326Y020967D01*
X010330Y020937D01*
X010330Y020907D01*
X010326Y020877D01*
X010318Y020848D01*
X010307Y020820D01*
X010292Y020793D01*
X010274Y020769D01*
X010253Y020747D01*
X010229Y020728D01*
X010203Y020713D01*
X010176Y020701D01*
X010147Y020692D01*
X010117Y020687D01*
X010086Y020686D01*
X010056Y020689D01*
X010027Y020696D01*
X009998Y020706D01*
X009972Y020720D01*
X009947Y020737D01*
X009924Y020758D01*
X009905Y020781D01*
X009888Y020806D01*
X009875Y020833D01*
X009866Y020862D01*
X009860Y020892D01*
X009858Y020922D01*
X012888Y021139D02*
X012890Y021172D01*
X012896Y021205D01*
X012906Y021236D01*
X012919Y021267D01*
X012936Y021295D01*
X012956Y021322D01*
X012979Y021346D01*
X013005Y021366D01*
X013033Y021384D01*
X013063Y021398D01*
X013094Y021409D01*
X013127Y021416D01*
X013160Y021419D01*
X013193Y021418D01*
X013226Y021413D01*
X013258Y021404D01*
X013288Y021392D01*
X013317Y021376D01*
X013344Y021356D01*
X013369Y021334D01*
X013391Y021309D01*
X013409Y021281D01*
X013424Y021252D01*
X013436Y021221D01*
X013444Y021189D01*
X013448Y021156D01*
X013448Y021122D01*
X013444Y021089D01*
X013436Y021057D01*
X013424Y021026D01*
X013409Y020997D01*
X013391Y020969D01*
X013369Y020944D01*
X013344Y020922D01*
X013317Y020902D01*
X013288Y020886D01*
X013258Y020874D01*
X013226Y020865D01*
X013193Y020860D01*
X013160Y020859D01*
X013127Y020862D01*
X013094Y020869D01*
X013063Y020880D01*
X013033Y020894D01*
X013005Y020912D01*
X012979Y020932D01*
X012956Y020956D01*
X012936Y020983D01*
X012919Y021011D01*
X012906Y021042D01*
X012896Y021073D01*
X012890Y021106D01*
X012888Y021139D01*
X029078Y014052D02*
X029080Y014088D01*
X029086Y014123D01*
X029095Y014157D01*
X029109Y014191D01*
X029125Y014222D01*
X029145Y014252D01*
X029168Y014279D01*
X029194Y014304D01*
X029223Y014325D01*
X029253Y014344D01*
X029286Y014359D01*
X029320Y014370D01*
X029355Y014378D01*
X029390Y014382D01*
X029426Y014382D01*
X029461Y014378D01*
X029496Y014370D01*
X029530Y014359D01*
X029563Y014344D01*
X029593Y014325D01*
X029622Y014304D01*
X029648Y014279D01*
X029671Y014252D01*
X029691Y014222D01*
X029707Y014191D01*
X029721Y014157D01*
X029730Y014123D01*
X029736Y014088D01*
X029738Y014052D01*
X029736Y014016D01*
X029730Y013981D01*
X029721Y013947D01*
X029707Y013913D01*
X029691Y013882D01*
X029671Y013852D01*
X029648Y013825D01*
X029622Y013800D01*
X029593Y013779D01*
X029563Y013760D01*
X029530Y013745D01*
X029496Y013734D01*
X029461Y013726D01*
X029426Y013722D01*
X029390Y013722D01*
X029355Y013726D01*
X029320Y013734D01*
X029286Y013745D01*
X029253Y013760D01*
X029223Y013779D01*
X029194Y013800D01*
X029168Y013825D01*
X029145Y013852D01*
X029125Y013882D01*
X029109Y013913D01*
X029095Y013947D01*
X029086Y013981D01*
X029080Y014016D01*
X029078Y014052D01*
X030802Y021139D02*
X030804Y021172D01*
X030810Y021205D01*
X030820Y021236D01*
X030833Y021267D01*
X030850Y021295D01*
X030870Y021322D01*
X030893Y021346D01*
X030919Y021366D01*
X030947Y021384D01*
X030977Y021398D01*
X031008Y021409D01*
X031041Y021416D01*
X031074Y021419D01*
X031107Y021418D01*
X031140Y021413D01*
X031172Y021404D01*
X031202Y021392D01*
X031231Y021376D01*
X031258Y021356D01*
X031283Y021334D01*
X031305Y021309D01*
X031323Y021281D01*
X031338Y021252D01*
X031350Y021221D01*
X031358Y021189D01*
X031362Y021156D01*
X031362Y021122D01*
X031358Y021089D01*
X031350Y021057D01*
X031338Y021026D01*
X031323Y020997D01*
X031305Y020969D01*
X031283Y020944D01*
X031258Y020922D01*
X031231Y020902D01*
X031202Y020886D01*
X031172Y020874D01*
X031140Y020865D01*
X031107Y020860D01*
X031074Y020859D01*
X031041Y020862D01*
X031008Y020869D01*
X030977Y020880D01*
X030947Y020894D01*
X030919Y020912D01*
X030893Y020932D01*
X030870Y020956D01*
X030850Y020983D01*
X030833Y021011D01*
X030820Y021042D01*
X030810Y021073D01*
X030804Y021106D01*
X030802Y021139D01*
X036319Y005748D02*
X036316Y005613D01*
X036310Y005478D01*
X036299Y005343D01*
X036285Y005209D01*
X036267Y005075D01*
X036245Y004942D01*
X036219Y004809D01*
X036189Y004677D01*
X036156Y004546D01*
X036119Y004417D01*
X036078Y004288D01*
X036034Y004160D01*
X035986Y004034D01*
X035935Y003909D01*
X035879Y003786D01*
X035821Y003664D01*
X035759Y003544D01*
X035693Y003426D01*
X035624Y003310D01*
X035552Y003195D01*
X035477Y003083D01*
X035399Y002973D01*
X035317Y002866D01*
X035232Y002760D01*
X035145Y002658D01*
X035054Y002557D01*
X034961Y002460D01*
X034865Y002365D01*
X034766Y002273D01*
X034664Y002183D01*
X034561Y002097D01*
X034454Y002014D01*
X034346Y001933D01*
X034235Y001856D01*
X034122Y001782D01*
X034007Y001712D01*
X033890Y001644D01*
X033771Y001580D01*
X033650Y001520D01*
X033527Y001462D01*
X033403Y001409D01*
X033278Y001359D01*
X033151Y001312D01*
X033023Y001270D01*
X032894Y001231D01*
X032763Y001195D01*
X032632Y001163D01*
X032500Y001136D01*
X032367Y001111D01*
X032233Y001091D01*
X032099Y001075D01*
X031965Y001062D01*
X031830Y001053D01*
X031695Y001048D01*
X031560Y001047D01*
M02*
