G75*
%MOIN*%
%OFA0B0*%
%FSLAX24Y24*%
%IPPOS*%
%LPD*%
%AMOC8*
5,1,8,0,0,1.08239X$1,22.5*
%
%ADD10C,0.2180*%
%ADD11R,0.0680X0.0680*%
%ADD12OC8,0.0680*%
%ADD13R,0.0474X0.0513*%
%ADD14R,0.0513X0.0474*%
%ADD15R,0.0241X0.1556*%
%ADD16R,0.1340X0.1655*%
%ADD17R,0.1500X0.1750*%
%ADD18R,0.1437X0.1750*%
%ADD19C,0.0740*%
%ADD20C,0.0640*%
%ADD21R,0.0880X0.0340*%
%ADD22R,0.0540X0.0710*%
%ADD23R,0.0060X0.0720*%
%ADD24C,0.0560*%
%ADD25R,0.0631X0.0552*%
%ADD26OC8,0.0417*%
%ADD27C,0.0940*%
%ADD28C,0.0552*%
%ADD29R,0.1084X0.1143*%
%ADD30R,0.0946X0.0316*%
%ADD31R,0.0395X0.0395*%
%ADD32R,0.0340X0.0880*%
%ADD33R,0.0474X0.0474*%
%ADD34C,0.0456*%
D10*
X002822Y003572D03*
X002822Y020178D03*
X034428Y020178D03*
X034428Y003572D03*
D11*
X032625Y002875D03*
X005125Y018375D03*
D12*
X005125Y019375D03*
X005125Y020375D03*
X005125Y021375D03*
X013625Y002875D03*
X014625Y002875D03*
X015625Y002875D03*
X016625Y002875D03*
X017625Y002875D03*
X018625Y002875D03*
X019625Y002875D03*
X020625Y002875D03*
X021625Y002875D03*
X022625Y002875D03*
X023625Y002875D03*
X024625Y002875D03*
X025625Y002875D03*
X026625Y002875D03*
X027625Y002875D03*
X028625Y002875D03*
X029625Y002875D03*
X030625Y002875D03*
X031625Y002875D03*
X031625Y001875D03*
X030625Y001875D03*
X029625Y001875D03*
X028625Y001875D03*
X027625Y001875D03*
X026625Y001875D03*
X025625Y001875D03*
X024625Y001875D03*
X023625Y001875D03*
X022625Y001875D03*
X021625Y001875D03*
X020625Y001875D03*
X019625Y001875D03*
X018625Y001875D03*
X017625Y001875D03*
X016625Y001875D03*
X015625Y001875D03*
X014625Y001875D03*
X013625Y001875D03*
X032625Y001875D03*
D13*
X006960Y015750D03*
X006290Y015750D03*
X005710Y015750D03*
X005040Y015750D03*
X005040Y015000D03*
X005710Y015000D03*
X006290Y016500D03*
X006960Y016500D03*
X003375Y016415D03*
X003375Y017085D03*
X003790Y009375D03*
X004460Y009375D03*
D14*
X002960Y009875D03*
X002290Y009875D03*
X004728Y005313D03*
X005397Y005313D03*
X011250Y014665D03*
X011250Y015335D03*
X011250Y016040D03*
X011250Y016710D03*
X006960Y015000D03*
X006290Y015000D03*
X004438Y014978D03*
X004438Y015647D03*
X004438Y016228D03*
X005040Y016500D03*
X005710Y016500D03*
X004438Y016897D03*
X011625Y020290D03*
X011625Y020960D03*
X032625Y020960D03*
X032625Y020290D03*
X032085Y004813D03*
X031415Y004813D03*
D15*
X028250Y011481D03*
X028000Y011481D03*
X027750Y011481D03*
X027500Y011481D03*
X027250Y011481D03*
X027000Y011481D03*
X026750Y011481D03*
X026500Y011481D03*
X026250Y011481D03*
X026000Y011481D03*
X025750Y011481D03*
X025500Y011481D03*
X025250Y011481D03*
X025000Y011481D03*
X024750Y011481D03*
X024500Y011481D03*
X024250Y011481D03*
X024000Y011481D03*
X023750Y011481D03*
X023500Y011481D03*
X023250Y011481D03*
X023000Y011481D03*
X022750Y011481D03*
X022500Y011481D03*
X022250Y011481D03*
X022000Y011481D03*
X021750Y011481D03*
X021500Y011481D03*
X021250Y011481D03*
X021000Y011481D03*
X020750Y011481D03*
X020500Y011481D03*
X020250Y011481D03*
X020000Y011481D03*
X019750Y011481D03*
X019500Y011481D03*
X019250Y011481D03*
X019000Y011481D03*
X018750Y011481D03*
X018500Y011481D03*
X018250Y011481D03*
X018000Y011481D03*
X017750Y011481D03*
X017500Y011481D03*
X017250Y011481D03*
X017000Y011481D03*
X016750Y011481D03*
X016500Y011481D03*
X016250Y011481D03*
X016000Y011481D03*
D16*
X012722Y018873D03*
X031528Y018873D03*
D17*
X012707Y018875D03*
D18*
X031531Y018875D03*
D19*
X029408Y014052D03*
X014842Y014052D03*
D20*
X013168Y021139D03*
X031082Y021139D03*
D21*
X016105Y009625D03*
X016105Y009125D03*
X016105Y008625D03*
X016105Y008125D03*
X016105Y007625D03*
X016105Y007125D03*
X016105Y006625D03*
X016105Y006125D03*
X016105Y005625D03*
X016105Y005125D03*
X012145Y005125D03*
X012145Y005625D03*
X012145Y006125D03*
X012145Y006625D03*
X012145Y007125D03*
X012145Y007625D03*
X012145Y008125D03*
X012145Y008625D03*
X012145Y009125D03*
X012145Y009625D03*
X031415Y009125D03*
X031415Y008625D03*
X031415Y008125D03*
X031415Y007625D03*
X031415Y007125D03*
X031415Y006625D03*
X031415Y006125D03*
X031415Y005625D03*
X033835Y005625D03*
X033835Y006125D03*
X033835Y006625D03*
X033835Y007125D03*
X033835Y007625D03*
X033835Y008125D03*
X033835Y008625D03*
X033835Y009125D03*
D22*
X035013Y007625D03*
X035613Y007625D03*
X035613Y006875D03*
X035013Y006875D03*
X030163Y006125D03*
X029563Y006125D03*
X028963Y006125D03*
X028963Y007625D03*
X029563Y007625D03*
X030163Y007625D03*
X021600Y009063D03*
X021000Y009063D03*
X020400Y009063D03*
X003225Y015375D03*
X002625Y015375D03*
X002025Y015375D03*
D23*
X035313Y007625D03*
X035313Y006875D03*
D24*
X010365Y006375D02*
X009885Y006375D01*
X009365Y006375D02*
X008885Y006375D01*
X008885Y005375D02*
X009365Y005375D01*
X009885Y005375D02*
X010365Y005375D01*
X010365Y004375D02*
X009885Y004375D01*
X009365Y004375D02*
X008885Y004375D01*
X008885Y003375D02*
X009365Y003375D01*
X009885Y003375D02*
X010365Y003375D01*
X010365Y002375D02*
X009885Y002375D01*
X009365Y002375D02*
X008885Y002375D01*
X009885Y001375D02*
X010365Y001375D01*
X006365Y002375D02*
X005885Y002375D01*
X005885Y003375D02*
X006365Y003375D01*
X006365Y004375D02*
X005885Y004375D01*
X005885Y005375D02*
X006365Y005375D01*
X006365Y006375D02*
X005885Y006375D01*
X005885Y007375D02*
X006365Y007375D01*
X006365Y008375D02*
X005885Y008375D01*
X005885Y009375D02*
X006365Y009375D01*
X006625Y010635D02*
X006625Y011115D01*
X005625Y011115D02*
X005625Y010635D01*
X004625Y010635D02*
X004625Y011115D01*
X003625Y011115D02*
X003625Y010635D01*
X002625Y010635D02*
X002625Y011115D01*
X002625Y013635D02*
X002625Y014115D01*
X003625Y014115D02*
X003625Y013635D01*
X004625Y013635D02*
X004625Y014115D01*
X005625Y014115D02*
X005625Y013635D01*
X006625Y013635D02*
X006625Y014115D01*
X007625Y014115D02*
X007625Y013635D01*
X008625Y013635D02*
X008625Y014115D01*
X009625Y014115D02*
X009625Y013635D01*
X009625Y011115D02*
X009625Y010635D01*
X008625Y010635D02*
X008625Y011115D01*
X007625Y011115D02*
X007625Y010635D01*
X008885Y009375D02*
X009365Y009375D01*
X009885Y009375D02*
X010365Y009375D01*
X010365Y008375D02*
X009885Y008375D01*
X009365Y008375D02*
X008885Y008375D01*
X008885Y007375D02*
X009365Y007375D01*
X009885Y007375D02*
X010365Y007375D01*
D25*
X002558Y016415D03*
X001692Y016415D03*
X001692Y017085D03*
X002558Y017085D03*
D26*
X003125Y005375D03*
X003625Y005000D03*
X004125Y005375D03*
X029125Y008875D03*
X030125Y008875D03*
X033125Y014000D03*
X033625Y014375D03*
X034125Y014000D03*
X034625Y014375D03*
X035125Y014000D03*
X035625Y014375D03*
D27*
X010094Y017969D03*
X009109Y017969D03*
X007141Y017969D03*
X006156Y017969D03*
X008125Y019938D03*
D28*
X006156Y019938D03*
X006156Y020922D03*
X010094Y020922D03*
X010094Y019938D03*
X008125Y017969D03*
D29*
X032875Y016375D03*
X035375Y016375D03*
D30*
X010024Y016375D03*
X010024Y015875D03*
X010024Y015375D03*
X010024Y014875D03*
X007976Y014875D03*
X007976Y015375D03*
X007976Y015875D03*
X007976Y016375D03*
D31*
X011625Y021580D03*
X011625Y022170D03*
X032625Y022170D03*
X032625Y021580D03*
D32*
X032625Y015085D03*
X033125Y015085D03*
X033625Y015085D03*
X034125Y015085D03*
X034625Y015085D03*
X035125Y015085D03*
X035625Y015085D03*
X035625Y012665D03*
X035125Y012665D03*
X034625Y012665D03*
X034125Y012665D03*
X033625Y012665D03*
X033125Y012665D03*
X032625Y012665D03*
X004625Y008585D03*
X004125Y008585D03*
X003625Y008585D03*
X003125Y008585D03*
X002625Y008585D03*
X002125Y008585D03*
X001625Y008585D03*
X001625Y006165D03*
X002125Y006165D03*
X002625Y006165D03*
X003125Y006165D03*
X003625Y006165D03*
X004125Y006165D03*
X004625Y006165D03*
D33*
X033298Y017560D03*
X033298Y018190D03*
X034952Y018190D03*
X034952Y017560D03*
D34*
X030813Y009688D03*
M02*
