%
M48
M72
T01C0.0118
T02C0.0197
T03C0.0236
T04C0.0320
T05C0.0400
T06C0.0472
T07C0.0512
T08C0.0560
T09C0.0660
T10C0.0800
T11C0.1102
%
T01
X4063Y2313
X4438Y2313
X4813Y2313
X4813Y2688
X4438Y2688
X4063Y2688
X17250Y4063
X17875Y4500
X18313Y4875
X18750Y4625
X19313Y4250
X20125Y3875
X20500Y5563
X19500Y5563
X19500Y6500
X18500Y6500
X18500Y7625
X19500Y7625
X19500Y9000
X18750Y9063
X17750Y9375
X18250Y10000
X19500Y10063
X17250Y8813
X21813Y7750
X22625Y7625
X21875Y6500
X24063Y7375
X24063Y7938
X25125Y7875
X26125Y7375
X26125Y6875
X27125Y6375
X26625Y5813
X25750Y5250
X25375Y6125
X24875Y6625
X27125Y7375
X27688Y7125
X28625Y6875
X29563Y6875
X29563Y6125
X30688Y6938
X30750Y5125
X30375Y5125
X29125Y5125
X28125Y5875
X28000Y8188
X28438Y8500
X27125Y9375
X26125Y9375
X26125Y10063
X25125Y10063
X24563Y10375
X24000Y10000
X23625Y10375
X23000Y10063
X24063Y9375
X25125Y9375
X23000Y9063
X23000Y12750
X22125Y12750
X19000Y12750
X18000Y12750
X10000Y16875
X6313Y15375
X3875Y16375
X3625Y15375
X11000Y20250
X33188Y7625
X34625Y7875
X34625Y8875
X35125Y8875
X35625Y8875
X36000Y6875
X35438Y6125
X35063Y5875
X35125Y5375
X34688Y5438
X35625Y5375
X35625Y4875
T02
X30125Y8875
X29125Y8875
X4125Y5000
X3625Y5375
X3125Y5000
X2625Y5375
X2125Y5000
X1625Y5375
T03
X12125Y2625
X12500Y3000
X12875Y3375
X30438Y9688
T04
X9625Y10875
X8625Y10875
X7625Y10875
X6625Y10875
X5625Y10875
X4625Y10875
X3625Y10875
X2625Y10875
X2625Y13875
X3625Y13875
X4625Y13875
X5625Y13875
X6625Y13875
X7625Y13875
X8625Y13875
X9625Y13875
T05
X5625Y2875
X5625Y1875
X13625Y1875
X14625Y1875
X15625Y1875
X16625Y1875
X17625Y1875
X18625Y1875
X19625Y1875
X20625Y1875
X21625Y1875
X22625Y1875
X23625Y1875
X24625Y1875
X25625Y1875
X26625Y1875
X27625Y1875
X28625Y1875
X29625Y1875
X30625Y1875
X31625Y1875
X32625Y1875
X32625Y2875
X31625Y2875
X30625Y2875
X29625Y2875
X28625Y2875
X27625Y2875
X26625Y2875
X25625Y2875
X24625Y2875
X23625Y2875
X22625Y2875
X21625Y2875
X20625Y2875
X19625Y2875
X18625Y2875
X17625Y2875
X16625Y2875
X15625Y2875
X14625Y2875
X13625Y2875
T06
X8125Y17969
X6156Y19938
X6156Y20922
X10094Y20922
X10094Y19938
T07
X8125Y19938
X7141Y17969
X6156Y17969
X9109Y17969
X10094Y17969
T08
X13168Y21139
X31082Y21139
T09
X29408Y14052
X14842Y14052
T10
X9125Y4300
X9125Y2500
T11
X2822Y3572
X2822Y20178
X34428Y20178
X34428Y3572
M30
